<?xml version="1.0" encoding="utf-8"?>
<!-- Generator: Adobe Illustrator 16.0.0, SVG Export Plug-In . SVG Version: 6.00 Build 0)  -->
<!DOCTYPE svg PUBLIC "-//W3C//DTD SVG 1.1//EN" "http://www.w3.org/Graphics/SVG/1.1/DTD/svg11.dtd">
<svg version="1.1" id="Layer_1" xmlns="http://www.w3.org/2000/svg" xmlns:xlink="http://www.w3.org/1999/xlink" x="0px" y="0px"
	 width="595.28px" height="841.89px" viewBox="0 0 595.28 841.89" enable-background="new 0 0 595.28 841.89" xml:space="preserve">
<g transform="translate(0.000000,300.000000) scale(0.100000,-0.100000)">
</g>
<g>
	<circle fill="#E6CC5C" stroke="#000000" stroke-width="7" stroke-miterlimit="10" cx="297.64" cy="378.776" r="217.29"/>
	<g transform="translate(0.000000,300.000000) scale(0.100000,-0.100000)">
		<path id="node1_1_" d="M2813.169,650.864c-37.432-6.714-82.529-16.309-100.752-23.032c-18.242-5.757-82.529-23.984-142.988-40.298
			c-252.363-68.13-485.547-234.141-567.119-402.065c-53.73-110.356-73.877-164.092-95.957-256.211
			c-17.266-71.011-19.189-100.762-13.428-185.2c4.795-78.687,2.881-109.39-8.633-142.021
			c-23.994-68.12-94.043-165.049-182.324-252.368c-79.648-79.653-82.529-84.448-82.529-126.65c0-36.475,5.762-50.879,30.713-78.706
			c16.309-19.194,47.988-43.179,69.092-54.692c22.07-10.547,50.85-30.723,65.254-43.169l25.898-24.951l-23.027-44.155
			c-13.438-23.989-23.984-54.692-23.984-69.082c0-23.984,25.908-60.464,48.936-68.135c8.633-2.891,8.633-8.643,0-23.984
			c-19.189-36.475-11.523-62.373,25.908-98.848c47.021-44.131,52.773-66.201,35.508-148.73
			c-37.432-175.586,4.795-249.512,154.492-274.453c60.449-10.547,90.195-9.59,273.486,13.438
			c241.807,30.713,268.682,31.67,289.795,8.652c23.027-24.971,44.141-92.139,59.482-185.186
			c17.275-102.686,37.432-152.598,61.426-152.598c34.541,0,42.217,23.984,26.865,73.877c-8.643,24.961-20.156,76.777-25.908,113.252
			c-14.395,92.109-37.441,150.654-72.939,193.828c-27.822,32.617-33.564,35.498-91.162,39.346
			c-36.455,1.895-133.379-6.729-236.055-21.123c-203.428-28.789-240.85-29.756-308.018-10.547
			c-82.529,24.941-91.162,57.568-60.459,224.551c13.438,74.844,4.795,109.385-42.226,154.482
			c-35.508,34.531-33.584,50.864,11.523,68.135c15.342,5.767,22.06,16.313,22.06,32.622c0,20.151-6.719,24.946-43.174,34.541
			c-63.33,16.318-68.135,26.88-37.422,82.554c41.26,73.867,23.984,106.489-93.086,178.462
			c-59.492,36.45-71.006,47.021-73.877,71.972c-2.891,23.989,5.752,36.45,53.73,79.644
			c71.006,65.249,143.926,158.33,185.195,238.936c32.627,62.378,32.627,63.33,33.594,196.714
			c0,149.702,11.504,213.989,53.73,321.465c49.902,124.746,71.016,156.406,149.697,231.255
			c140.098,134.346,283.076,209.189,500.898,263.887c181.367,45.103,220.703,50.859,316.67,51.826
			c311.851,0.952,653.452-140.107,879.936-361.772C4004.003,96.23,4052.929,5.068,4085.566-185.894
			c24.961-148.735,24.004-221.66-3.867-358.887c-26.836-130.498-53.711-188.071-144.883-301.308
			c-180.371-226.455-273.476-396.304-273.476-498.979c0-65.254,164.082-540.234,203.418-587.266
			c13.457-17.295,45.137-15.371,51.836,1.904c3.828,8.623-15.332,70.068-42.227,137.236
			c-59.472,152.568-145.84,415.498-145.84,446.201c0,12.48,8.652,47.979,19.16,77.725
			c33.594,98.853,104.609,211.113,240.879,381.924c133.379,165.991,175.605,292.671,176.563,521.05
			c0.977,373.276-133.379,605.498-474.98,821.406C3434.004,619.199,3076.074,698.843,2813.169,650.864z"/>
		<path id="node2_1_" d="M2953.266,560.664c-13.438-3.838-48.936-5.762-78.691-2.876c-66.201,5.757-187.119-20.156-246.611-51.821
			c-23.027-12.471-51.816-23.027-65.254-23.027c-33.584,0-120.898-44.146-158.33-78.687c-23.994-23.032-41.26-30.708-69.092-31.67
			c-32.617-0.957-44.141-8.633-93.076-60.449c-35.498-37.427-68.125-85.405-91.162-133.384
			c-19.189-41.26-41.26-78.687-48.936-83.481c-17.275-9.595-49.893-79.653-50.859-107.48c0-10.552-7.676-36.46-18.223-57.568
			c-23.037-47.979-39.355-126.67-39.355-184.243c0.967-52.778,16.318-98.833,51.816-157.373
			c35.508-57.578,40.313-66.211,54.697-96.919c12.48-27.827,54.697-56.606,99.795-68.125c53.75-14.395,247.578-15.356,268.682-1.924
			c10.557,6.719,34.551,10.562,54.707,7.686c32.627-3.853,35.498-6.724,46.055-47.983c13.438-53.74,23.037-66.216,63.34-83.496
			c23.027-9.58,37.422-26.851,56.611-66.206c33.574-70.991,95-111.308,168.877-111.308c22.08,0,30.713-6.724,41.27-31.655
			c6.709-17.285,37.422-59.512,67.178-93.101c40.288-45.093,57.573-73.872,69.077-114.189
			c24.961-87.31,86.367-203.423,139.141-262.915c46.074-51.826,68.145-65.254,79.648-46.074
			c2.891,4.805-13.418,27.852-36.484,50.879c-57.559,59.492-105.547,145.85-141.035,252.354
			c-24.961,74.854-38.379,99.805-80.605,145.874c-60.444,68.12-77.729,96.909-60.444,102.666
			c14.385,4.805,134.312,24.951,147.749,24.951c5.762,0,14.395-18.247,20.176-41.25c6.699-23.037,25.898-63.354,44.121-90.205
			c31.68-47.041,33.594-52.778,37.422-158.335c3.848-84.443,9.59-118.994,25.918-158.34c27.832-62.373,50.84-86.367,67.168-67.158
			c7.676,10.547,6.699,19.18-7.676,36.436c-29.727,37.451-48.926,110.352-48.926,183.301c0,74.839-5.762,71.982,71.953,42.207
			c57.559-22.056,173.672-19.175,247.578,4.805c102.656,33.584,218.77,137.227,275.41,247.578
			c11.523,21.103,24.922,37.422,29.726,34.546c19.199-12.476,56.641,9.6,86.367,49.902
			c86.367,118.018,92.148,132.417,106.523,304.189c16.309,194.795,6.719,288.833-30.723,315.698
			c-10.527,7.676-18.223,31.665-23.027,73.887c-11.504,101.714-70.996,200.552-196.719,326.26
			c-131.465,130.508-165.039,155.449-211.074,159.292c-19.219,0.962-51.836,13.433-71.992,26.865
			c-36.465,23.994-130.508,63.335-152.578,63.335c-6.699,0-17.266,4.8-22.07,9.59c-17.266,17.285-140.098,42.231-214.941,43.184
			c-39.336,0.962-87.305,3.848-105.547,7.686C2992.597,565.459,2966.704,564.502,2953.266,560.664z M2935.034,501.172
			c42.217-21.113,60.454-42.222,52.773-62.378c-6.709-18.232,10.571-45.093,23.989-36.46c17.285,9.595,9.59,79.644-10.547,99.795
			c-10.566,10.557-19.194,21.113-19.194,23.994c0,9.595,34.526,4.795,52.769-8.633c15.352-10.562,29.727-10.562,70.059-2.881
			c43.164,9.59,54.707,8.633,83.477-6.724c17.266-9.59,36.465-14.39,42.227-11.514c14.375,9.595,82.539-10.557,96.914-27.827
			c6.699-8.633,15.352-42.217,18.223-74.844c3.848-44.146,9.609-59.502,20.156-59.502c11.523,0,14.395,13.433,14.395,60.454
			c0,41.265,3.828,59.502,11.523,59.502c6.699,0,38.379-13.438,70.977-30.708c60.469-31.67,89.277-62.373,99.824-106.514
			c3.848-14.395,12.48-25.913,20.137-25.913c16.309,0,18.242,40.303,3.848,68.13c-23.984,44.146,23.984,13.433,107.461-68.13
			c48.945-47.026,92.148-86.362,95.977-86.362c17.266,0,6.699-18.232-13.438-24.951c-33.594-9.595-55.664-32.627-80.605-84.438
			c-27.832-57.578-27.832-55.654-1.934-51.816c15.371,1.914,23.047,11.509,27.832,34.536c8.652,42.227,32.637,67.173,72.949,74.858
			c25.898,4.795,37.402,1.909,55.664-15.356c13.418-12.471,26.836-31.675,29.727-42.222c3.848-11.523,17.285-36.475,28.77-55.654
			c13.438-20.151,23.047-50.864,23.047-70.054c0-19.194,6.719-45.098,15.352-57.578c14.395-22.07,14.395-25.908-4.824-55.654
			c-11.484-18.232-20.137-40.298-20.137-48.931c0-22.075,25.918-19.194,38.398,4.79c17.266,31.67,35.508,5.757,47.969-70.049
			c13.438-77.725,5.742-106.514-33.594-124.746c-32.637-14.39-32.637-40.308,0-34.546c23.066,4.8,24.004,3.843,24.004-50.854
			c0-63.34-6.738-85.405-24.941-85.405c-18.223,0-17.266-19.194,1.934-33.584c14.375-9.6,13.418-16.318-11.523-68.125
			c-18.242-37.441-32.637-55.669-42.246-52.793c-7.656,1.929-22.051,5.757-30.703,7.695c-12.461,3.818-17.266,0-17.266-15.376
			c0-10.552,4.805-20.146,9.609-20.146c14.375,0,11.504-24.937-4.805-38.374c-12.5-10.562-26.875-6.719-85.41,22.07
			c-38.398,19.194-82.5,37.441-97.871,41.255c-47.988,11.523-100.742,44.155-111.309,67.178
			c-13.418,28.789,3.828,71.006,27.832,71.006c10.547,0,27.813,19.194,44.141,47.979c14.375,26.87,36.445,53.745,49.902,59.497
			c25.879,11.514,32.637,36.46,10.547,36.46c-21.113,0-67.188-42.212-87.324-80.596c-10.547-19.194-23.984-34.551-30.723-34.551
			c-19.18,0-50.84-48.936-50.84-80.605c0-42.212-12.461-54.702-96.934-100.757c-80.605-43.184-130.508-54.692-81.543-18.213
			c30.703,23.003,63.32,91.147,63.32,134.331c0,39.331-25.918,91.152-57.578,113.228c-15.332,10.557-29.746,19.194-32.617,19.194
			c-14.395,0-3.848-27.827,18.223-47.988c31.66-29.741,46.055-82.524,33.594-124.751c-8.633-30.693-52.773-86.362-68.125-86.362
			c-3.848,0-27.813-12.461-53.75-27.827c-50.84-30.693-122.813-50.854-100.742-28.794c5.742,6.733,11.504,22.07,11.504,34.561
			c0,23.989-52.773,89.238-72.93,89.238c-19.199,0-17.266-7.666,15.332-45.093c34.57-39.351,35.527-47.983,5.762-61.421
			c-12.461-5.757-24.941-18.232-27.793-27.827c-5.781-21.113-152.583-43.183-240.864-36.45
			c-86.367,7.656-121.865,29.736-141.055,89.229c-13.438,41.265-22.08,51.807-60.459,71.968
			c-48.936,26.86-63.33,53.735-63.33,120.913c0,44.141-19.189,58.535-36.465,27.827c-6.719-12.476-13.438-12.476-39.336-3.843
			c-26.875,9.6-36.465,8.633-57.578-3.833c-20.146-11.519-48.945-14.395-141.064-11.519
			c-117.061,2.876-157.373,12.471-185.195,47.021c-24.951,29.741,17.275,101.719,58.535,101.719
			c20.146,0,23.027,17.266,3.838,24.946c-17.275,6.714-69.092-20.161-81.572-41.265c-13.428-23.994-35.498-1.919-65.244,64.292
			c-21.104,46.05-23.037,62.368-19.199,129.546c4.805,78.682,24.951,143.94,47.021,150.654c7.686,2.871,12.471,23.027,13.438,53.735
			c0.967,53.735,20.156,85.405,54.697,90.2c16.309,1.919,20.146,10.552,22.07,42.227c0.957,22.065,8.633,51.812,16.309,67.163
			c25.908,47.979,97.881,132.422,126.67,147.783c24.951,13.428,27.832,12.476,41.26-7.681
			c19.189-28.789,27.832-26.865,44.141,11.514c26.865,64.292,142.979,125.708,193.838,103.633
			c34.551-16.313,42.227-14.395,42.227,11.514c0,31.67,7.666,35.518,119.941,59.497
			C2857.309,529.956,2879.38,529.004,2935.034,501.172z M3621.113-717.495c10.566-10.562,24.961-18.247,32.637-18.247
			c18.262,0,143.945-58.521,143.945-68.13c0-23.022-51.816-98.843-106.504-154.477c-92.148-95.01-146.855-118.032-277.324-118.032
			c-85.41,0-106.504,2.876-139.141,21.104c-73.906,39.355-147.773,140.107-148.77,202.485c0,16.299,5.762,21.094,24.961,21.094
			c33.594,0,110.371,20.151,131.484,33.579c9.59,6.733,33.594,9.614,57.559,7.686c34.57-3.828,52.773,1.929,117.07,34.551
			c42.246,22.07,83.496,47.021,91.172,54.688C3564.511-685.83,3592.344-691.597,3621.113-717.495z"/>
	</g>
	<g>
		<path fill-rule="evenodd" clip-rule="evenodd" fill="#008D36" d="M362.539,326.415c-0.199,0.287-0.387,0.562-0.58,0.831
			c-0.141,0.197-0.127,0.412,0.047,0.546c0.158,0.123,0.373,0.082,0.521-0.11c0.57-0.741,1.023-1.552,1.406-2.401
			c0.91-2.005,1.488-4.094,1.602-6.3c0.053-0.97-0.014-1.932-0.336-2.86c-0.033-0.091-0.068-0.18-0.107-0.27
			c-0.004-0.016-0.018-0.028-0.029-0.042c-1.07,1.039-2.225,3.501-1.307,5.759c-0.238-0.237-0.484-0.462-0.707-0.712
			c-0.553-0.619-0.965-1.317-1.107-2.147c-0.172-1,0.084-1.889,0.719-2.675c0.041-0.05,0.082-0.101,0.133-0.167
			c-1.029,0.377-2.436,1.355-2.91,3.401c-0.174-0.321-0.205-1.437-0.063-2.126c0.15-0.73,0.494-1.356,1.029-1.877
			c0.529-0.516,1.168-0.838,1.873-1.043c-1.189-0.18-2.258,0.102-3.219,0.823c0.299-0.711,0.746-1.3,1.393-1.725
			c0.654-0.431,1.373-0.606,2.152-0.55c0.773,0.055,1.463,0.339,2.076,0.792c0.936-1.242,2.17-1.627,3.619-1.296
			c1.328,0.302,2.125,1.208,2.611,2.494c-0.805-0.64-1.658-1.026-2.658-1.004c-0.385,0.008-0.803,0.133-0.994,0.279
			c0.213,0.102,0.453,0.198,0.674,0.322c0.799,0.445,1.244,1.143,1.406,2.026c0.152,0.81,0.01,1.589-0.293,2.341
			c-0.117,0.303-0.273,0.592-0.414,0.885c-0.035,0.069-0.082,0.131-0.141,0.226c-0.02-0.305-0.029-0.575-0.061-0.842
			c-0.104-0.896-0.381-1.721-1.008-2.396c-0.488-0.529-1.1-0.847-1.83-0.998c0.039,0.138,0.072,0.253,0.102,0.368
			c0.359,1.366,0.396,2.756,0.285,4.154c-0.137,1.741-0.51,3.435-1.033,5.098c-0.338,1.073-0.754,2.116-1.221,3.139
			c-0.133,0.295,0.012,0.568,0.295,0.563c0.152-0.002,0.254-0.082,0.332-0.214c0.471-0.781,0.91-1.582,1.424-2.333
			c1.18-1.726,2.572-3.26,4.305-4.45c0.488-0.338,1.041-0.585,1.563-0.874c0.039-0.022,0.084-0.042,0.143-0.072
			c-0.248-0.245-0.537-0.348-0.85-0.396c-0.887-0.139-1.67,0.13-2.387,0.637c-0.051,0.036-0.1,0.072-0.162,0.094
			c0.355-0.939,0.857-1.751,1.881-2.073c0.578-0.182,1.135-0.104,1.641,0.251c0.023,0.017,0.051,0.029,0.08,0.044
			c0.094-0.559-0.666-1.234-1.879-1.675c2.102-0.829,4.15,0.981,3.604,2.917c0.787,0.251,1.311,0.774,1.547,1.564
			c0.209,0.692,0.094,1.354-0.244,1.987c-0.041-0.579-0.203-1.115-0.543-1.586c-0.117-0.164-0.256-0.312-0.402-0.458
			c0.34,0.856,0.359,1.693-0.107,2.499c-0.316,0.546-0.799,0.923-1.369,1.189c0.676-0.901,0.873-1.886,0.555-2.974
			c-0.168,0.75-0.557,1.333-1.254,1.678c-0.709,0.35-1.453,0.347-2.266,0.199c0.723-0.221,1.26-0.609,1.668-1.186
			c0.4-0.57,0.619-1.205,0.744-1.937c-2.785,1.53-4.686,3.792-6.014,6.602c0.252,0.159,0.49,0.307,0.729,0.463
			c0.67,0.441,1.332,0.897,1.881,1.491c0.127,0.137,0.244,0.288,0.336,0.448c0.209,0.366,0.09,0.642-0.33,0.685
			c-0.34,0.035-0.691,0.023-1.027-0.023c-1.02-0.146-1.996-0.473-2.959-0.832c-1.266-0.47-2.49-1.026-3.68-1.667
			c-1.191-0.642-2.357-1.325-3.375-2.234c-0.217-0.195-0.402-0.43-0.596-0.652c-0.059-0.068-0.096-0.154-0.131-0.237
			c-0.109-0.278-0.029-0.483,0.26-0.539c0.285-0.054,0.59-0.073,0.877-0.046c0.822,0.073,1.613,0.306,2.393,0.569
			c0.496,0.167,0.986,0.358,1.48,0.54C362.395,326.34,362.457,326.376,362.539,326.415z"/>
	</g>
	<g>
		<path fill-rule="evenodd" clip-rule="evenodd" fill="#008D36" d="M239.78,309.007c-0.198,0.287-0.385,0.562-0.577,0.831
			c-0.142,0.197-0.129,0.413,0.045,0.546c0.158,0.123,0.374,0.082,0.521-0.11c0.57-0.741,1.023-1.551,1.409-2.401
			c0.907-2.005,1.486-4.094,1.601-6.299c0.05-0.971-0.014-1.933-0.337-2.86c-0.033-0.092-0.069-0.181-0.106-0.271
			c-0.006-0.016-0.021-0.027-0.031-0.042c-1.066,1.039-2.226,3.501-1.307,5.76c-0.236-0.237-0.483-0.464-0.708-0.714
			c-0.553-0.618-0.962-1.316-1.105-2.146c-0.172-1.001,0.085-1.89,0.72-2.675c0.04-0.051,0.08-0.102,0.132-0.167
			c-1.028,0.376-2.437,1.354-2.91,3.4c-0.173-0.321-0.207-1.437-0.063-2.126c0.151-0.731,0.495-1.357,1.029-1.877
			c0.529-0.516,1.167-0.838,1.873-1.043c-1.189-0.18-2.257,0.102-3.219,0.823c0.299-0.712,0.746-1.3,1.392-1.725
			c0.654-0.431,1.376-0.606,2.154-0.55c0.773,0.056,1.463,0.34,2.078,0.793c0.932-1.242,2.166-1.627,3.617-1.297
			c1.326,0.301,2.126,1.208,2.611,2.493c-0.807-0.64-1.658-1.027-2.659-1.004c-0.384,0.008-0.801,0.133-0.994,0.279
			c0.216,0.102,0.453,0.199,0.677,0.323c0.798,0.444,1.242,1.143,1.406,2.026c0.149,0.809,0.005,1.587-0.293,2.34
			c-0.121,0.303-0.274,0.592-0.417,0.885c-0.033,0.068-0.081,0.131-0.14,0.226c-0.021-0.305-0.03-0.575-0.061-0.842
			c-0.104-0.895-0.38-1.721-1.007-2.396c-0.491-0.53-1.1-0.847-1.831-0.998c0.038,0.137,0.069,0.252,0.101,0.367
			c0.359,1.367,0.397,2.756,0.285,4.154c-0.136,1.742-0.51,3.435-1.033,5.099c-0.338,1.074-0.754,2.117-1.221,3.14
			c-0.134,0.294,0.011,0.568,0.297,0.563c0.152-0.002,0.25-0.082,0.33-0.213c0.47-0.782,0.911-1.582,1.424-2.334
			c1.181-1.726,2.573-3.259,4.305-4.451c0.49-0.337,1.039-0.584,1.563-0.874c0.041-0.022,0.083-0.042,0.143-0.072
			c-0.246-0.245-0.537-0.348-0.849-0.396c-0.89-0.139-1.67,0.13-2.387,0.636c-0.052,0.037-0.102,0.072-0.164,0.095
			c0.357-0.939,0.859-1.752,1.884-2.073c0.577-0.182,1.134-0.104,1.639,0.25c0.023,0.017,0.052,0.029,0.08,0.045
			c0.094-0.559-0.666-1.235-1.877-1.674c2.103-0.83,4.146,0.981,3.603,2.916c0.787,0.253,1.311,0.775,1.548,1.565
			c0.207,0.692,0.093,1.354-0.244,1.989c-0.043-0.58-0.205-1.116-0.543-1.588c-0.117-0.163-0.255-0.312-0.402-0.457
			c0.341,0.856,0.359,1.692-0.109,2.499c-0.318,0.546-0.798,0.922-1.37,1.188c0.679-0.9,0.873-1.886,0.556-2.974
			c-0.169,0.75-0.557,1.333-1.254,1.678c-0.708,0.35-1.452,0.348-2.265,0.199c0.721-0.222,1.259-0.61,1.666-1.186
			c0.402-0.569,0.62-1.204,0.744-1.937c-2.784,1.53-4.685,3.792-6.013,6.601c0.253,0.16,0.492,0.308,0.729,0.463
			c0.671,0.442,1.332,0.898,1.882,1.491c0.126,0.136,0.243,0.288,0.335,0.449c0.211,0.365,0.089,0.641-0.331,0.684
			c-0.339,0.034-0.688,0.023-1.026-0.024c-1.021-0.146-1.994-0.473-2.958-0.832c-1.265-0.47-2.491-1.026-3.68-1.667
			c-1.191-0.642-2.358-1.326-3.374-2.235c-0.219-0.195-0.404-0.429-0.596-0.653c-0.058-0.067-0.098-0.153-0.131-0.237
			c-0.109-0.277-0.031-0.483,0.26-0.539c0.286-0.055,0.588-0.073,0.878-0.047c0.821,0.073,1.609,0.306,2.39,0.57
			c0.497,0.167,0.987,0.358,1.48,0.54C239.636,308.934,239.699,308.968,239.78,309.007z"/>
	</g>
	<g>
		<path fill-rule="evenodd" clip-rule="evenodd" fill="#008D36" d="M288.913,364.764c0.117,0.467,0.232,0.911,0.337,1.356
			c0.075,0.324,0.31,0.507,0.606,0.45c0.273-0.054,0.425-0.313,0.36-0.64c-0.25-1.267-0.677-2.476-1.208-3.651
			c-1.252-2.768-2.892-5.271-5.075-7.399c-0.961-0.936-2.018-1.746-3.272-2.257c-0.127-0.05-0.253-0.092-0.379-0.137
			c-0.022-0.008-0.047-0.002-0.072-0.005c0.106,2.053,1.603,5.499,4.785,6.602c-0.462,0.03-0.922,0.082-1.385,0.085
			c-1.146,0.01-2.243-0.201-3.234-0.809c-1.193-0.733-1.883-1.808-2.119-3.183c-0.015-0.088-0.033-0.174-0.053-0.291
			c-0.547,1.411-0.815,3.764,0.877,6.118c-0.491-0.113-1.68-1.093-2.264-1.87c-0.618-0.824-0.956-1.751-1.01-2.779
			c-0.053-1.019,0.194-1.974,0.623-2.894c-1.269,1.071-1.95,2.435-2.077,4.089c-0.467-0.958-0.67-1.958-0.521-3.016
			c0.147-1.07,0.623-1.978,1.392-2.735c0.763-0.751,1.684-1.208,2.715-1.434c-0.439-2.098,0.285-3.729,1.949-4.933
			c1.523-1.102,3.191-1.105,4.966-0.436c-1.397,0.252-2.575,0.783-3.463,1.842c-0.34,0.404-0.591,0.952-0.617,1.286
			c0.303-0.132,0.619-0.291,0.95-0.408c1.188-0.423,2.318-0.25,3.384,0.388c0.977,0.581,1.653,1.44,2.161,2.435
			c0.204,0.402,0.363,0.825,0.538,1.239c0.041,0.097,0.063,0.203,0.106,0.35c-0.335-0.254-0.623-0.491-0.928-0.703
			c-1.022-0.708-2.132-1.174-3.403-1.14c-0.997,0.028-1.879,0.37-2.703,0.992c0.177,0.085,0.327,0.157,0.474,0.228
			c1.744,0.873,3.221,2.101,4.568,3.489c1.682,1.729,3.099,3.659,4.348,5.718c0.807,1.329,1.509,2.711,2.144,4.127
			c0.185,0.406,0.601,0.505,0.855,0.207c0.137-0.16,0.145-0.337,0.08-0.539c-0.384-1.199-0.813-2.386-1.125-3.604
			c-0.712-2.797-1.036-5.638-0.694-8.519c0.097-0.816,0.342-1.612,0.518-2.417c0.016-0.064,0.031-0.123,0.055-0.214
			c-0.479,0.032-0.851,0.241-1.184,0.52c-0.954,0.796-1.388,1.851-1.516,3.057c-0.009,0.085-0.018,0.171-0.052,0.255
			c-0.647-1.227-1.033-2.487-0.434-3.843c0.339-0.766,0.924-1.271,1.753-1.472c0.04-0.009,0.079-0.027,0.119-0.042
			c-0.492-0.607-1.888-0.433-3.446,0.42c1.057-2.935,4.796-3.408,6.308-1.08c0.979-0.585,1.998-0.653,3.032-0.179
			c0.908,0.416,1.491,1.136,1.842,2.064c-0.64-0.482-1.345-0.804-2.143-0.882c-0.274-0.028-0.555-0.021-0.84,0
			c1.198,0.426,2.083,1.169,2.491,2.39c0.278,0.828,0.231,1.668-0.014,2.504c-0.316-1.525-1.161-2.625-2.579-3.286
			c0.623,0.858,0.876,1.793,0.599,2.829c-0.281,1.053-0.962,1.824-1.857,2.53c0.427-0.947,0.516-1.861,0.289-2.809
			c-0.225-0.936-0.686-1.74-1.331-2.537c-0.951,4.285-0.334,8.315,1.369,12.254c0.395-0.117,0.767-0.232,1.144-0.335
			c1.071-0.293,2.146-0.564,3.261-0.593c0.258-0.006,0.52,0.011,0.772,0.06c0.57,0.115,0.746,0.493,0.408,0.967
			c-0.273,0.383-0.605,0.736-0.961,1.042c-1.082,0.927-2.307,1.637-3.558,2.312c-1.638,0.884-3.334,1.649-5.081,2.298
			c-1.752,0.652-3.525,1.239-5.392,1.464c-0.401,0.048-0.815,0.027-1.222,0.024c-0.122-0.002-0.246-0.04-0.362-0.08
			c-0.39-0.139-0.531-0.409-0.324-0.762c0.203-0.346,0.461-0.676,0.752-0.953c0.825-0.786,1.784-1.391,2.768-1.959
			c0.626-0.365,1.271-0.699,1.908-1.045C288.706,364.846,288.799,364.814,288.913,364.764z"/>
	</g>
	<g>
		<path fill-rule="evenodd" clip-rule="evenodd" fill="#008D36" d="M379.492,365.681c0.059,0.227,0.113,0.44,0.164,0.656
			c0.035,0.157,0.148,0.245,0.293,0.218c0.131-0.027,0.203-0.152,0.174-0.31c-0.119-0.612-0.326-1.197-0.584-1.765
			c-0.605-1.337-1.398-2.547-2.451-3.575c-0.465-0.452-0.975-0.843-1.582-1.09c-0.061-0.024-0.121-0.045-0.182-0.066
			c-0.012-0.003-0.023-0.001-0.037-0.002c0.053,0.992,0.777,2.657,2.313,3.19c-0.221,0.015-0.445,0.039-0.67,0.042
			c-0.555,0.004-1.082-0.098-1.561-0.392c-0.578-0.354-0.91-0.874-1.023-1.538c-0.008-0.042-0.018-0.084-0.027-0.14
			c-0.264,0.682-0.393,1.818,0.424,2.956c-0.236-0.056-0.811-0.53-1.092-0.904c-0.301-0.398-0.461-0.846-0.488-1.342
			c-0.027-0.492,0.092-0.954,0.301-1.398c-0.613,0.518-0.941,1.176-1.004,1.976c-0.225-0.463-0.324-0.946-0.252-1.458
			c0.072-0.517,0.301-0.956,0.672-1.322c0.369-0.363,0.814-0.583,1.313-0.692c-0.213-1.014,0.137-1.802,0.941-2.384
			c0.736-0.532,1.541-0.534,2.4-0.211c-0.676,0.123-1.246,0.379-1.676,0.89c-0.162,0.196-0.285,0.46-0.299,0.622
			c0.146-0.063,0.303-0.14,0.463-0.197c0.572-0.205,1.117-0.121,1.633,0.187c0.473,0.28,0.799,0.695,1.043,1.176
			c0.102,0.194,0.176,0.398,0.262,0.599c0.018,0.046,0.029,0.099,0.051,0.169c-0.16-0.124-0.301-0.237-0.449-0.34
			c-0.492-0.342-1.027-0.567-1.641-0.55c-0.482,0.013-0.91,0.179-1.309,0.479c0.086,0.041,0.16,0.076,0.23,0.11
			c0.84,0.422,1.557,1.016,2.207,1.686c0.811,0.835,1.496,1.768,2.098,2.763c0.393,0.641,0.73,1.31,1.037,1.994
			c0.09,0.196,0.291,0.243,0.414,0.098c0.064-0.076,0.066-0.162,0.037-0.259c-0.184-0.58-0.391-1.152-0.543-1.742
			c-0.346-1.351-0.5-2.723-0.336-4.115c0.049-0.394,0.164-0.778,0.252-1.168c0.006-0.03,0.014-0.059,0.025-0.103
			c-0.23,0.015-0.41,0.116-0.574,0.251c-0.459,0.384-0.668,0.894-0.729,1.476c-0.006,0.042-0.01,0.083-0.025,0.124
			c-0.314-0.593-0.5-1.202-0.213-1.856c0.166-0.37,0.449-0.614,0.852-0.711c0.02-0.005,0.037-0.013,0.057-0.02
			c-0.24-0.293-0.912-0.209-1.668,0.204c0.512-1.419,2.318-1.647,3.049-0.522c0.473-0.282,0.965-0.315,1.463-0.086
			c0.441,0.2,0.725,0.548,0.893,0.996c-0.311-0.233-0.648-0.387-1.035-0.426c-0.133-0.013-0.27-0.009-0.404,0
			c0.578,0.207,1.004,0.566,1.201,1.155c0.133,0.4,0.111,0.807-0.008,1.21c-0.152-0.737-0.559-1.269-1.246-1.587
			c0.301,0.414,0.424,0.865,0.291,1.366c-0.137,0.509-0.465,0.881-0.898,1.223c0.209-0.458,0.25-0.899,0.141-1.357
			c-0.107-0.452-0.332-0.841-0.643-1.226c-0.459,2.07-0.164,4.018,0.662,5.921c0.191-0.058,0.369-0.113,0.551-0.163
			c0.518-0.141,1.037-0.271,1.574-0.286c0.125-0.003,0.254,0.005,0.375,0.03c0.273,0.055,0.359,0.237,0.197,0.467
			c-0.131,0.185-0.291,0.356-0.465,0.504c-0.521,0.447-1.113,0.792-1.719,1.117c-0.791,0.426-1.611,0.797-2.455,1.11
			c-0.846,0.314-1.703,0.599-2.605,0.708c-0.193,0.023-0.391,0.012-0.59,0.011c-0.057-0.001-0.119-0.019-0.176-0.039
			c-0.188-0.067-0.256-0.197-0.154-0.367c0.096-0.168,0.221-0.327,0.363-0.461c0.398-0.379,0.859-0.672,1.334-0.946
			c0.305-0.176,0.615-0.336,0.924-0.503C379.393,365.72,379.439,365.705,379.492,365.681z"/>
	</g>
	<g>
		<path fill-rule="evenodd" clip-rule="evenodd" fill="#008D36" d="M335.896,395.388c0.057,0.225,0.111,0.439,0.164,0.656
			c0.033,0.155,0.148,0.244,0.293,0.217c0.131-0.026,0.203-0.152,0.174-0.31c-0.121-0.612-0.326-1.198-0.586-1.763
			c-0.604-1.337-1.396-2.547-2.449-3.576c-0.465-0.452-0.977-0.843-1.584-1.09c-0.061-0.023-0.119-0.043-0.182-0.065
			c-0.012-0.004-0.021-0.001-0.035-0.004c0.051,0.992,0.775,2.658,2.313,3.191c-0.223,0.014-0.445,0.04-0.67,0.041
			c-0.555,0.004-1.082-0.098-1.561-0.391c-0.578-0.354-0.91-0.874-1.025-1.538c-0.008-0.042-0.016-0.084-0.025-0.14
			c-0.264,0.681-0.395,1.817,0.424,2.956c-0.238-0.055-0.813-0.528-1.092-0.903c-0.301-0.399-0.461-0.847-0.488-1.343
			c-0.029-0.493,0.092-0.955,0.301-1.398c-0.613,0.517-0.943,1.176-1.006,1.976c-0.225-0.463-0.322-0.946-0.252-1.457
			c0.074-0.519,0.301-0.957,0.674-1.322c0.369-0.364,0.814-0.583,1.311-0.692c-0.211-1.014,0.139-1.801,0.943-2.384
			c0.736-0.532,1.541-0.533,2.398-0.21c-0.676,0.123-1.246,0.379-1.674,0.89c-0.162,0.197-0.285,0.46-0.299,0.621
			c0.146-0.062,0.301-0.14,0.461-0.197c0.572-0.205,1.119-0.121,1.635,0.188c0.473,0.281,0.797,0.694,1.045,1.177
			c0.098,0.193,0.174,0.397,0.258,0.598c0.02,0.048,0.031,0.098,0.053,0.168c-0.16-0.124-0.303-0.236-0.449-0.339
			c-0.494-0.342-1.029-0.567-1.643-0.551c-0.482,0.015-0.908,0.18-1.309,0.479c0.088,0.042,0.16,0.076,0.232,0.112
			c0.84,0.421,1.555,1.014,2.207,1.685c0.811,0.836,1.494,1.769,2.098,2.762c0.391,0.642,0.73,1.311,1.037,1.995
			c0.09,0.197,0.291,0.244,0.412,0.099c0.066-0.078,0.072-0.162,0.039-0.259c-0.186-0.58-0.391-1.153-0.543-1.742
			c-0.346-1.35-0.5-2.723-0.338-4.116c0.049-0.395,0.166-0.779,0.254-1.167c0.006-0.032,0.014-0.06,0.023-0.104
			c-0.23,0.015-0.41,0.115-0.57,0.251c-0.461,0.384-0.67,0.894-0.732,1.477c-0.006,0.041-0.008,0.083-0.025,0.124
			c-0.313-0.593-0.498-1.203-0.211-1.857c0.166-0.369,0.449-0.615,0.85-0.711c0.02-0.005,0.039-0.013,0.059-0.02
			c-0.24-0.294-0.914-0.21-1.668,0.203c0.51-1.419,2.318-1.647,3.049-0.521c0.473-0.284,0.965-0.316,1.463-0.087
			c0.441,0.201,0.723,0.549,0.891,0.997c-0.309-0.232-0.648-0.388-1.035-0.426c-0.133-0.013-0.268-0.01-0.404,0
			c0.578,0.206,1.006,0.566,1.203,1.155c0.133,0.4,0.111,0.806-0.008,1.209c-0.152-0.736-0.559-1.268-1.246-1.587
			c0.301,0.414,0.424,0.866,0.291,1.367c-0.137,0.509-0.465,0.881-0.9,1.223c0.211-0.459,0.252-0.9,0.143-1.357
			c-0.109-0.453-0.332-0.842-0.645-1.226c-0.459,2.07-0.16,4.017,0.662,5.919c0.191-0.057,0.371-0.111,0.553-0.163
			c0.518-0.14,1.037-0.271,1.574-0.285c0.125-0.002,0.252,0.005,0.375,0.028c0.273,0.056,0.357,0.238,0.195,0.467
			c-0.131,0.185-0.291,0.356-0.465,0.504c-0.521,0.449-1.113,0.791-1.719,1.117c-0.789,0.428-1.609,0.797-2.453,1.11
			c-0.848,0.315-1.703,0.599-2.605,0.708c-0.193,0.024-0.393,0.013-0.59,0.012c-0.059-0.002-0.119-0.021-0.176-0.04
			c-0.189-0.066-0.256-0.197-0.156-0.367c0.098-0.168,0.223-0.329,0.365-0.461c0.396-0.38,0.861-0.673,1.334-0.948
			c0.305-0.175,0.613-0.337,0.924-0.504C335.795,395.427,335.842,395.412,335.896,395.388z"/>
	</g>
	<g>
		<path fill-rule="evenodd" clip-rule="evenodd" fill="#008D36" d="M275.152,276.567c0.085,0.339,0.169,0.66,0.244,0.983
			c0.054,0.234,0.225,0.368,0.439,0.326c0.197-0.039,0.308-0.228,0.261-0.463c-0.181-0.918-0.49-1.794-0.875-2.645
			c-0.907-2.004-2.094-3.818-3.676-5.36c-0.696-0.677-1.461-1.264-2.371-1.634c-0.091-0.035-0.183-0.066-0.274-0.099
			c-0.015-0.005-0.033-0.001-0.051-0.003c0.076,1.487,1.16,3.983,3.465,4.782c-0.334,0.022-0.668,0.06-1.003,0.063
			c-0.83,0.006-1.625-0.147-2.342-0.586c-0.866-0.531-1.364-1.31-1.536-2.306c-0.011-0.063-0.023-0.126-0.037-0.21
			c-0.396,1.022-0.591,2.726,0.634,4.431c-0.354-0.082-1.216-0.792-1.639-1.355c-0.448-0.596-0.692-1.268-0.731-2.012
			c-0.038-0.738,0.141-1.43,0.452-2.096c-0.919,0.775-1.413,1.764-1.506,2.962c-0.338-0.694-0.484-1.418-0.378-2.185
			c0.108-0.776,0.452-1.434,1.009-1.981c0.553-0.544,1.22-0.875,1.967-1.039c-0.319-1.52,0.206-2.701,1.411-3.573
			c1.103-0.797,2.312-0.8,3.597-0.316c-1.012,0.183-1.865,0.568-2.509,1.334c-0.245,0.293-0.428,0.69-0.446,0.931
			c0.219-0.095,0.448-0.21,0.688-0.295c0.861-0.306,1.681-0.181,2.452,0.28c0.707,0.42,1.197,1.043,1.564,1.764
			c0.148,0.291,0.264,0.598,0.39,0.898c0.03,0.07,0.046,0.147,0.079,0.253c-0.244-0.185-0.452-0.356-0.673-0.509
			c-0.741-0.514-1.545-0.851-2.466-0.826c-0.722,0.02-1.36,0.269-1.957,0.718c0.128,0.062,0.236,0.113,0.342,0.166
			c1.264,0.632,2.333,1.521,3.31,2.527c1.218,1.252,2.244,2.65,3.148,4.142c0.584,0.961,1.093,1.963,1.554,2.988
			c0.133,0.295,0.435,0.366,0.619,0.149c0.099-0.116,0.104-0.244,0.058-0.39c-0.277-0.868-0.588-1.729-0.814-2.611
			c-0.517-2.025-0.75-4.083-0.504-6.17c0.071-0.591,0.248-1.168,0.375-1.751c0.012-0.045,0.023-0.089,0.04-0.155
			c-0.347,0.023-0.615,0.175-0.857,0.376c-0.69,0.577-1.005,1.341-1.099,2.214c-0.005,0.062-0.012,0.124-0.036,0.186
			c-0.47-0.889-0.748-1.802-0.314-2.784c0.245-0.554,0.67-0.92,1.271-1.066c0.028-0.007,0.056-0.019,0.086-0.03
			c-0.357-0.44-1.367-0.314-2.496,0.304c0.765-2.126,3.473-2.467,4.568-0.781c0.709-0.424,1.447-0.473,2.196-0.13
			c0.658,0.301,1.08,0.823,1.335,1.494c-0.465-0.35-0.975-0.581-1.552-0.638c-0.2-0.021-0.403-0.016-0.609,0
			c0.868,0.309,1.51,0.847,1.805,1.73c0.201,0.6,0.168,1.208-0.01,1.814c-0.229-1.104-0.842-1.901-1.868-2.38
			c0.451,0.622,0.634,1.298,0.434,2.049c-0.205,0.764-0.697,1.322-1.345,1.833c0.309-0.687,0.372-1.348,0.209-2.035
			c-0.163-0.678-0.497-1.261-0.964-1.837c-0.689,3.104-0.243,6.023,0.991,8.876c0.285-0.084,0.556-0.167,0.828-0.243
			c0.775-0.212,1.553-0.408,2.362-0.43c0.186-0.004,0.376,0.008,0.559,0.044c0.413,0.083,0.54,0.357,0.295,0.7
			c-0.198,0.277-0.438,0.534-0.694,0.755c-0.783,0.672-1.672,1.186-2.578,1.674c-1.187,0.64-2.415,1.195-3.68,1.665
			c-1.27,0.472-2.554,0.898-3.906,1.061c-0.29,0.035-0.59,0.02-0.885,0.017c-0.088-0.001-0.178-0.028-0.263-0.058
			c-0.281-0.1-0.385-0.296-0.234-0.551c0.147-0.251,0.333-0.49,0.544-0.69c0.598-0.569,1.293-1.009,2.006-1.419
			c0.453-0.265,0.92-0.506,1.382-0.757C275.002,276.626,275.07,276.603,275.152,276.567z"/>
	</g>
	<g>
		<path fill-rule="evenodd" clip-rule="evenodd" fill="#EB5D5D" d="M216.883,325.4c0.005,0.349,0.086,0.662,0.235,0.953
			c0.243,0.474,0.612,0.783,1.162,0.838c0.476,0.049,0.901-0.106,1.307-0.328c0.681-0.375,1.159-0.955,1.594-1.575
			c0.632-0.901,1.127-1.876,1.553-2.888c0.037-0.09,0.032-0.154-0.017-0.234c-0.742-1.216-1.48-2.434-2.221-3.652
			c-0.141-0.231-0.256-0.234-0.406-0.007c-0.557,0.839-1.112,1.676-1.662,2.518c-0.052,0.077-0.08,0.182-0.084,0.276
			c-0.025,0.498-0.072,0.995-0.299,1.444c-0.177,0.352-0.409,0.674-0.613,1.012C217.121,324.269,216.903,324.811,216.883,325.4z
			 M211.205,319.854c-0.008,0-0.017,0-0.025,0.002c0.038,0.513,0.068,1.027,0.117,1.538c0.068,0.746,0.204,1.479,0.458,2.186
			c0.222,0.619,0.563,1.158,1.094,1.558c0.352,0.265,0.747,0.394,1.192,0.307c0.495-0.096,0.85-0.397,1.122-0.799
			c0.414-0.608,0.434-1.296,0.354-1.994c-0.039-0.33-0.12-0.656-0.153-0.986c-0.061-0.587,0.085-1.143,0.297-1.686
			c0.038-0.099,0.042-0.223,0.026-0.331c-0.042-0.306-0.101-0.609-0.153-0.914c-0.119-0.685-0.234-1.369-0.354-2.054
			c-0.038-0.215-0.157-0.268-0.332-0.145c-1.19,0.833-2.38,1.669-3.568,2.507c-0.036,0.025-0.069,0.081-0.07,0.124
			C211.202,319.396,211.205,319.624,211.205,319.854z M218.202,319.065c0.015,0.002,0.028,0.004,0.042,0.007
			c0.024-0.035,0.048-0.069,0.072-0.104c0.483-0.731,0.969-1.462,1.452-2.194c0.128-0.193,0.287-0.327,0.53-0.334
			c0.282-0.008,0.461,0.142,0.599,0.369c0.77,1.272,1.541,2.542,2.313,3.813c0.026,0.045,0.057,0.088,0.107,0.167
			c0.091-0.397,0.176-0.748,0.25-1.101c0.216-1.03,0.127-2.028-0.335-2.981c-0.418-0.861-1.049-1.473-2.021-1.646
			c-1.132-0.202-2.239,0.277-2.702,1.515c-0.218,0.58-0.281,1.183-0.307,1.793C218.195,318.601,218.202,318.833,218.202,319.065z
			 M216.647,317.989c0.406-0.788,0.737-1.592,0.763-2.482c0.017-0.567-0.112-1.104-0.488-1.547c-0.749-0.884-1.949-1.168-3.01-0.708
			c-0.867,0.376-1.48,1.037-1.924,1.85c-0.402,0.737-0.54,1.559-0.663,2.401c0.06-0.039,0.104-0.064,0.146-0.094
			c0.687-0.481,1.374-0.964,2.062-1.446c0.542-0.381,1.083-0.764,1.627-1.142c0.432-0.299,0.914-0.1,1.007,0.414
			c0.099,0.547,0.19,1.097,0.286,1.646C216.517,317.25,216.583,317.62,216.647,317.989z"/>
		<path fill-rule="evenodd" clip-rule="evenodd" fill="#EB5D5D" d="M216.883,325.4c0.02-0.589,0.237-1.131,0.549-1.643
			c0.204-0.338,0.437-0.66,0.613-1.012c0.227-0.449,0.273-0.946,0.299-1.444c0.004-0.094,0.032-0.199,0.084-0.276
			c0.55-0.842,1.105-1.679,1.662-2.518c0.15-0.227,0.266-0.225,0.406,0.007c0.74,1.218,1.479,2.436,2.221,3.652
			c0.049,0.08,0.054,0.144,0.017,0.234c-0.426,1.012-0.921,1.987-1.553,2.888c-0.435,0.621-0.913,1.201-1.594,1.575
			c-0.405,0.222-0.831,0.377-1.307,0.328c-0.55-0.055-0.919-0.364-1.162-0.838C216.969,326.062,216.888,325.749,216.883,325.4z"/>
		<path fill-rule="evenodd" clip-rule="evenodd" fill="#EB5D5D" d="M211.205,319.854c0-0.229-0.003-0.458,0.003-0.687
			c0.001-0.043,0.034-0.098,0.07-0.124c1.188-0.837,2.378-1.673,3.568-2.507c0.175-0.123,0.294-0.07,0.332,0.145
			c0.12,0.685,0.235,1.369,0.354,2.054c0.053,0.305,0.111,0.608,0.153,0.914c0.016,0.108,0.012,0.231-0.026,0.331
			c-0.212,0.543-0.357,1.098-0.297,1.686c0.033,0.33,0.114,0.656,0.153,0.986c0.08,0.697,0.061,1.386-0.354,1.994
			c-0.272,0.402-0.627,0.703-1.122,0.799c-0.445,0.086-0.841-0.042-1.192-0.307c-0.531-0.4-0.872-0.939-1.094-1.558
			c-0.254-0.707-0.39-1.439-0.458-2.186c-0.049-0.511-0.079-1.025-0.117-1.538C211.188,319.854,211.197,319.854,211.205,319.854z"/>
		<path fill-rule="evenodd" clip-rule="evenodd" fill="#EB5D5D" d="M218.202,319.065c0-0.232-0.007-0.465,0.001-0.697
			c0.025-0.611,0.089-1.214,0.307-1.793c0.463-1.237,1.57-1.717,2.702-1.515c0.973,0.174,1.604,0.786,2.021,1.646
			c0.462,0.954,0.551,1.952,0.335,2.981c-0.074,0.353-0.159,0.704-0.25,1.101c-0.051-0.079-0.081-0.122-0.107-0.167
			c-0.772-1.271-1.544-2.54-2.313-3.813c-0.138-0.228-0.316-0.377-0.599-0.369c-0.243,0.007-0.402,0.142-0.53,0.334
			c-0.483,0.732-0.969,1.463-1.452,2.194c-0.024,0.035-0.048,0.069-0.072,0.104C218.23,319.07,218.216,319.067,218.202,319.065z"/>
		<path fill-rule="evenodd" clip-rule="evenodd" fill="#EB5D5D" d="M216.647,317.989c-0.064-0.37-0.13-0.74-0.194-1.109
			c-0.096-0.549-0.188-1.098-0.286-1.646c-0.093-0.514-0.575-0.713-1.007-0.414c-0.544,0.377-1.085,0.761-1.627,1.142
			c-0.688,0.482-1.375,0.965-2.062,1.446c-0.042,0.03-0.087,0.056-0.146,0.094c0.123-0.843,0.261-1.664,0.663-2.401
			c0.443-0.813,1.057-1.473,1.924-1.85c1.061-0.459,2.261-0.175,3.01,0.708c0.376,0.444,0.505,0.98,0.488,1.547
			C217.384,316.397,217.053,317.202,216.647,317.989z"/>
	</g>
	<g>
		<path fill-rule="evenodd" clip-rule="evenodd" fill="#EB5D5D" d="M312.152,267.202c0.002,0.349,0.084,0.662,0.232,0.952
			c0.244,0.475,0.615,0.783,1.162,0.838c0.475,0.05,0.902-0.106,1.311-0.329c0.678-0.374,1.158-0.954,1.592-1.574
			c0.631-0.901,1.127-1.876,1.551-2.889c0.037-0.09,0.033-0.153-0.016-0.234c-0.742-1.216-1.48-2.435-2.223-3.652
			c-0.137-0.232-0.254-0.234-0.402-0.006c-0.559,0.838-1.113,1.675-1.666,2.517c-0.049,0.079-0.078,0.184-0.08,0.277
			c-0.027,0.498-0.074,0.996-0.299,1.444c-0.176,0.352-0.41,0.675-0.613,1.013C312.389,266.071,312.172,266.613,312.152,267.202z
			 M306.473,261.656c-0.01,0-0.018,0.001-0.025,0.001c0.039,0.513,0.068,1.027,0.117,1.539c0.068,0.747,0.203,1.479,0.457,2.186
			c0.221,0.619,0.561,1.158,1.094,1.558c0.354,0.266,0.746,0.394,1.193,0.307c0.494-0.096,0.852-0.397,1.121-0.8
			c0.414-0.608,0.436-1.295,0.354-1.993c-0.037-0.33-0.119-0.655-0.154-0.986c-0.061-0.587,0.086-1.142,0.299-1.685
			c0.037-0.1,0.041-0.224,0.027-0.331c-0.043-0.306-0.104-0.61-0.154-0.915c-0.121-0.684-0.234-1.369-0.354-2.053
			c-0.039-0.215-0.158-0.268-0.334-0.145c-1.189,0.834-2.381,1.669-3.566,2.506c-0.037,0.025-0.072,0.081-0.072,0.124
			C306.469,261.198,306.473,261.427,306.473,261.656z M313.469,260.868c0.016,0.002,0.029,0.005,0.043,0.008
			c0.023-0.035,0.047-0.069,0.07-0.104c0.484-0.732,0.971-1.463,1.453-2.194c0.129-0.193,0.289-0.328,0.531-0.334
			c0.281-0.009,0.459,0.142,0.598,0.369c0.77,1.271,1.543,2.542,2.314,3.813c0.027,0.044,0.057,0.087,0.107,0.167
			c0.09-0.397,0.174-0.748,0.25-1.102c0.215-1.028,0.125-2.027-0.336-2.98c-0.42-0.861-1.049-1.473-2.021-1.647
			c-1.131-0.203-2.238,0.277-2.699,1.515c-0.221,0.58-0.283,1.183-0.309,1.793C313.463,260.403,313.469,260.636,313.469,260.868z
			 M311.916,259.792c0.404-0.788,0.736-1.592,0.764-2.483c0.014-0.567-0.115-1.104-0.492-1.546
			c-0.746-0.884-1.947-1.168-3.008-0.708c-0.867,0.376-1.48,1.037-1.926,1.85c-0.4,0.737-0.537,1.558-0.662,2.401
			c0.061-0.039,0.107-0.064,0.146-0.094c0.688-0.482,1.375-0.964,2.061-1.447c0.543-0.38,1.084-0.763,1.629-1.141
			c0.432-0.299,0.912-0.101,1.006,0.413c0.1,0.548,0.191,1.097,0.287,1.646C311.785,259.052,311.85,259.422,311.916,259.792z"/>
		<path fill-rule="evenodd" clip-rule="evenodd" fill="#EB5D5D" d="M312.152,267.202c0.02-0.589,0.236-1.131,0.549-1.642
			c0.203-0.337,0.438-0.661,0.613-1.013c0.225-0.448,0.271-0.946,0.299-1.444c0.002-0.093,0.031-0.199,0.08-0.277
			c0.553-0.841,1.107-1.678,1.666-2.517c0.148-0.228,0.266-0.226,0.402,0.006c0.742,1.217,1.48,2.436,2.223,3.652
			c0.049,0.081,0.053,0.144,0.016,0.234c-0.424,1.013-0.92,1.988-1.551,2.889c-0.434,0.62-0.914,1.2-1.592,1.574
			c-0.408,0.223-0.836,0.378-1.311,0.329c-0.547-0.055-0.918-0.364-1.162-0.838C312.236,267.864,312.154,267.551,312.152,267.202z"
			/>
		<path fill-rule="evenodd" clip-rule="evenodd" fill="#EB5D5D" d="M306.473,261.656c0-0.229-0.004-0.458,0.002-0.687
			c0-0.043,0.035-0.099,0.072-0.124c1.186-0.837,2.377-1.672,3.566-2.506c0.176-0.123,0.295-0.07,0.334,0.145
			c0.119,0.685,0.232,1.369,0.354,2.053c0.051,0.305,0.111,0.609,0.154,0.915c0.014,0.107,0.01,0.231-0.027,0.331
			c-0.213,0.543-0.359,1.098-0.299,1.685c0.035,0.331,0.117,0.656,0.154,0.986c0.082,0.698,0.061,1.385-0.354,1.993
			c-0.27,0.403-0.627,0.704-1.121,0.8c-0.447,0.086-0.84-0.042-1.193-0.307c-0.533-0.4-0.873-0.939-1.094-1.558
			c-0.254-0.707-0.389-1.439-0.457-2.186c-0.049-0.512-0.078-1.026-0.117-1.539C306.455,261.657,306.463,261.656,306.473,261.656z"
			/>
		<path fill-rule="evenodd" clip-rule="evenodd" fill="#EB5D5D" d="M313.469,260.868c0-0.232-0.006-0.465,0.002-0.697
			c0.025-0.61,0.088-1.213,0.309-1.793c0.461-1.237,1.568-1.717,2.699-1.515c0.973,0.174,1.602,0.786,2.021,1.647
			c0.461,0.953,0.551,1.952,0.336,2.98c-0.076,0.354-0.16,0.705-0.25,1.102c-0.051-0.08-0.08-0.123-0.107-0.167
			c-0.771-1.271-1.545-2.541-2.314-3.813c-0.139-0.227-0.316-0.378-0.598-0.369c-0.242,0.007-0.402,0.141-0.531,0.334
			c-0.482,0.731-0.969,1.462-1.453,2.194c-0.023,0.035-0.047,0.069-0.07,0.104C313.498,260.873,313.484,260.87,313.469,260.868z"/>
		<path fill-rule="evenodd" clip-rule="evenodd" fill="#EB5D5D" d="M311.916,259.792c-0.066-0.37-0.131-0.74-0.195-1.11
			c-0.096-0.548-0.188-1.098-0.287-1.646c-0.094-0.514-0.574-0.712-1.006-0.413c-0.545,0.377-1.086,0.76-1.629,1.141
			c-0.686,0.483-1.373,0.965-2.061,1.447c-0.039,0.029-0.086,0.055-0.146,0.094c0.125-0.843,0.262-1.664,0.662-2.401
			c0.445-0.813,1.059-1.474,1.926-1.85c1.061-0.46,2.262-0.176,3.008,0.708c0.377,0.442,0.506,0.979,0.492,1.546
			C312.652,258.2,312.32,259.004,311.916,259.792z"/>
	</g>
	<g>
		<path fill-rule="evenodd" clip-rule="evenodd" fill="#EB5D5D" d="M317.48,353.222c0.004,0.35,0.086,0.663,0.234,0.953
			c0.244,0.474,0.613,0.783,1.162,0.838c0.475,0.05,0.9-0.105,1.309-0.328c0.678-0.374,1.156-0.954,1.594-1.574
			c0.629-0.902,1.123-1.876,1.551-2.889c0.037-0.089,0.031-0.153-0.018-0.234c-0.74-1.216-1.48-2.434-2.221-3.651
			c-0.141-0.232-0.254-0.234-0.404-0.006c-0.557,0.838-1.113,1.675-1.664,2.517c-0.051,0.078-0.078,0.183-0.084,0.277
			c-0.025,0.497-0.072,0.996-0.297,1.443c-0.176,0.353-0.41,0.676-0.615,1.013C317.717,352.092,317.5,352.633,317.48,353.222z
			 M311.801,347.677c-0.008,0-0.016,0-0.023,0c0.035,0.513,0.064,1.027,0.115,1.539c0.068,0.747,0.205,1.479,0.459,2.186
			c0.221,0.618,0.561,1.157,1.094,1.557c0.352,0.266,0.746,0.394,1.193,0.309c0.494-0.097,0.85-0.398,1.121-0.801
			c0.412-0.608,0.432-1.295,0.354-1.994c-0.039-0.33-0.119-0.654-0.154-0.986c-0.061-0.587,0.086-1.142,0.299-1.685
			c0.037-0.099,0.039-0.223,0.027-0.331c-0.045-0.306-0.105-0.61-0.156-0.915c-0.119-0.684-0.234-1.369-0.355-2.053
			c-0.035-0.216-0.154-0.267-0.332-0.145c-1.188,0.834-2.381,1.669-3.566,2.506c-0.035,0.025-0.07,0.081-0.07,0.125
			C311.799,347.218,311.801,347.447,311.801,347.677z M318.799,346.888c0.014,0.003,0.025,0.005,0.043,0.007
			c0.021-0.034,0.045-0.068,0.07-0.104c0.484-0.731,0.969-1.462,1.453-2.194c0.127-0.193,0.287-0.328,0.531-0.335
			c0.279-0.008,0.459,0.143,0.598,0.37c0.768,1.272,1.543,2.542,2.313,3.812c0.027,0.045,0.057,0.088,0.105,0.167
			c0.094-0.397,0.178-0.748,0.25-1.101c0.217-1.029,0.129-2.028-0.334-2.98c-0.418-0.862-1.047-1.474-2.02-1.648
			c-1.131-0.202-2.238,0.278-2.703,1.515c-0.219,0.58-0.281,1.183-0.305,1.793C318.791,346.423,318.799,346.655,318.799,346.888z
			 M317.242,345.812c0.408-0.788,0.738-1.593,0.764-2.483c0.016-0.567-0.111-1.104-0.488-1.547c-0.75-0.884-1.951-1.168-3.01-0.708
			c-0.865,0.375-1.482,1.036-1.924,1.85c-0.402,0.737-0.541,1.557-0.662,2.4c0.059-0.039,0.105-0.064,0.146-0.094
			c0.686-0.482,1.373-0.964,2.061-1.447c0.543-0.381,1.082-0.764,1.629-1.141c0.432-0.298,0.912-0.101,1.004,0.413
			c0.1,0.548,0.193,1.097,0.289,1.646C317.111,345.072,317.178,345.442,317.242,345.812z"/>
		<path fill-rule="evenodd" clip-rule="evenodd" fill="#EB5D5D" d="M317.48,353.222c0.02-0.588,0.236-1.13,0.547-1.642
			c0.205-0.337,0.439-0.66,0.615-1.013c0.225-0.448,0.271-0.946,0.297-1.443c0.006-0.094,0.033-0.199,0.084-0.277
			c0.551-0.842,1.107-1.679,1.664-2.517c0.15-0.229,0.264-0.226,0.404,0.006c0.74,1.218,1.48,2.435,2.221,3.651
			c0.049,0.081,0.055,0.145,0.018,0.234c-0.428,1.013-0.922,1.987-1.551,2.889c-0.438,0.62-0.916,1.2-1.594,1.574
			c-0.408,0.223-0.834,0.378-1.309,0.328c-0.549-0.055-0.918-0.364-1.162-0.838C317.566,353.884,317.484,353.571,317.48,353.222z"/>
		<path fill-rule="evenodd" clip-rule="evenodd" fill="#EB5D5D" d="M311.801,347.677c0-0.23-0.002-0.459,0.004-0.687
			c0-0.043,0.035-0.099,0.07-0.125c1.186-0.837,2.379-1.672,3.566-2.506c0.178-0.122,0.297-0.071,0.332,0.145
			c0.121,0.684,0.236,1.369,0.355,2.053c0.051,0.305,0.111,0.609,0.156,0.915c0.012,0.108,0.01,0.232-0.027,0.331
			c-0.213,0.543-0.359,1.097-0.299,1.685c0.035,0.332,0.115,0.656,0.154,0.986c0.078,0.698,0.059,1.386-0.354,1.994
			c-0.271,0.402-0.627,0.704-1.121,0.801c-0.447,0.085-0.842-0.042-1.193-0.309c-0.533-0.4-0.873-0.939-1.094-1.557
			c-0.254-0.707-0.391-1.439-0.459-2.186c-0.051-0.512-0.08-1.025-0.115-1.539C311.785,347.677,311.793,347.677,311.801,347.677z"/>
		<path fill-rule="evenodd" clip-rule="evenodd" fill="#EB5D5D" d="M318.799,346.888c0-0.232-0.008-0.465,0.002-0.697
			c0.023-0.61,0.086-1.214,0.305-1.793c0.465-1.237,1.572-1.717,2.703-1.515c0.973,0.174,1.602,0.786,2.02,1.648
			c0.463,0.952,0.551,1.951,0.334,2.98c-0.072,0.354-0.156,0.704-0.25,1.101c-0.049-0.079-0.078-0.122-0.105-0.167
			c-0.77-1.27-1.545-2.54-2.313-3.812c-0.139-0.228-0.318-0.378-0.598-0.37c-0.244,0.007-0.404,0.142-0.531,0.335
			c-0.484,0.731-0.969,1.463-1.453,2.194c-0.025,0.036-0.049,0.07-0.07,0.104C318.824,346.893,318.813,346.891,318.799,346.888z"/>
		<path fill-rule="evenodd" clip-rule="evenodd" fill="#EB5D5D" d="M317.242,345.812c-0.064-0.37-0.131-0.74-0.191-1.11
			c-0.096-0.548-0.189-1.098-0.289-1.646c-0.092-0.514-0.572-0.711-1.004-0.413c-0.547,0.377-1.086,0.76-1.629,1.141
			c-0.688,0.482-1.375,0.965-2.061,1.447c-0.041,0.029-0.088,0.055-0.146,0.094c0.121-0.843,0.26-1.664,0.662-2.4
			c0.441-0.813,1.059-1.474,1.924-1.85c1.059-0.461,2.26-0.176,3.01,0.708c0.377,0.443,0.504,0.979,0.488,1.547
			C317.98,344.219,317.65,345.024,317.242,345.812z"/>
	</g>
	<g>
		<path fill-rule="evenodd" clip-rule="evenodd" fill="#EB5D5D" d="M379.398,307.699c0.002,0.349,0.084,0.662,0.236,0.953
			c0.242,0.474,0.611,0.782,1.158,0.838c0.479,0.049,0.902-0.107,1.309-0.33c0.682-0.373,1.16-0.953,1.594-1.574
			c0.631-0.901,1.127-1.876,1.553-2.888c0.039-0.09,0.031-0.154-0.018-0.234c-0.742-1.216-1.48-2.435-2.219-3.651
			c-0.141-0.233-0.258-0.234-0.408-0.007c-0.555,0.839-1.111,1.676-1.664,2.518c-0.049,0.077-0.078,0.183-0.08,0.275
			c-0.025,0.498-0.074,0.996-0.299,1.445c-0.176,0.352-0.41,0.674-0.613,1.012C379.635,306.568,379.418,307.11,379.398,307.699z
			 M373.719,302.153c-0.01,0-0.018,0-0.025,0c0.039,0.514,0.068,1.027,0.117,1.54c0.068,0.746,0.203,1.479,0.459,2.185
			c0.219,0.619,0.559,1.158,1.092,1.558c0.352,0.266,0.746,0.394,1.193,0.307c0.496-0.096,0.852-0.397,1.123-0.799
			c0.412-0.608,0.434-1.296,0.352-1.994c-0.037-0.33-0.119-0.656-0.152-0.986c-0.063-0.587,0.084-1.143,0.297-1.686
			c0.037-0.099,0.041-0.223,0.027-0.331c-0.043-0.306-0.104-0.609-0.154-0.914c-0.117-0.685-0.234-1.369-0.354-2.054
			c-0.039-0.215-0.156-0.267-0.334-0.145c-1.189,0.833-2.379,1.669-3.566,2.507c-0.037,0.025-0.07,0.081-0.072,0.124
			C373.715,301.695,373.719,301.923,373.719,302.153z M380.715,301.365c0.016,0.002,0.029,0.004,0.043,0.007
			c0.025-0.035,0.047-0.069,0.072-0.104c0.484-0.731,0.969-1.462,1.451-2.194c0.129-0.193,0.289-0.327,0.531-0.334
			c0.283-0.008,0.459,0.142,0.598,0.369c0.77,1.272,1.543,2.542,2.314,3.813c0.025,0.044,0.057,0.088,0.107,0.167
			c0.09-0.397,0.174-0.748,0.25-1.101c0.215-1.03,0.127-2.028-0.336-2.981c-0.416-0.861-1.049-1.473-2.021-1.646
			c-1.131-0.203-2.238,0.277-2.701,1.515c-0.219,0.579-0.281,1.182-0.307,1.793C380.709,300.899,380.715,301.132,380.715,301.365z
			 M379.162,300.289c0.404-0.788,0.736-1.592,0.764-2.483c0.016-0.566-0.115-1.103-0.49-1.546c-0.748-0.884-1.949-1.168-3.01-0.708
			c-0.867,0.376-1.48,1.037-1.926,1.85c-0.398,0.737-0.537,1.559-0.662,2.4c0.061-0.038,0.105-0.063,0.146-0.093
			c0.688-0.482,1.375-0.965,2.061-1.447c0.543-0.381,1.084-0.764,1.629-1.142c0.432-0.299,0.916-0.1,1.008,0.414
			c0.098,0.548,0.189,1.097,0.285,1.646C379.031,299.549,379.098,299.919,379.162,300.289z"/>
		<path fill-rule="evenodd" clip-rule="evenodd" fill="#EB5D5D" d="M379.398,307.699c0.02-0.589,0.236-1.131,0.549-1.643
			c0.203-0.338,0.438-0.66,0.613-1.012c0.225-0.449,0.273-0.947,0.299-1.445c0.002-0.093,0.031-0.198,0.08-0.275
			c0.553-0.842,1.109-1.679,1.664-2.518c0.15-0.227,0.268-0.226,0.408,0.007c0.738,1.217,1.477,2.435,2.219,3.651
			c0.049,0.081,0.057,0.144,0.018,0.234c-0.426,1.012-0.922,1.987-1.553,2.888c-0.434,0.621-0.912,1.201-1.594,1.574
			c-0.406,0.223-0.83,0.378-1.309,0.33c-0.547-0.056-0.916-0.364-1.158-0.838C379.482,308.361,379.4,308.048,379.398,307.699z"/>
		<path fill-rule="evenodd" clip-rule="evenodd" fill="#EB5D5D" d="M373.719,302.153c0-0.229-0.004-0.458,0.002-0.687
			c0.002-0.043,0.035-0.098,0.072-0.124c1.188-0.837,2.377-1.673,3.566-2.507c0.178-0.123,0.295-0.07,0.334,0.145
			c0.119,0.685,0.236,1.369,0.354,2.054c0.051,0.305,0.111,0.608,0.154,0.914c0.014,0.108,0.01,0.232-0.027,0.331
			c-0.213,0.543-0.359,1.098-0.297,1.686c0.033,0.33,0.115,0.656,0.152,0.986c0.082,0.697,0.061,1.386-0.352,1.994
			c-0.271,0.402-0.627,0.703-1.123,0.799c-0.447,0.086-0.842-0.042-1.193-0.307c-0.533-0.4-0.873-0.939-1.092-1.558
			c-0.256-0.707-0.391-1.439-0.459-2.185c-0.049-0.513-0.078-1.026-0.117-1.54C373.701,302.153,373.709,302.153,373.719,302.153z"/>
		<path fill-rule="evenodd" clip-rule="evenodd" fill="#EB5D5D" d="M380.715,301.365c0-0.232-0.006-0.465,0.002-0.697
			c0.025-0.611,0.088-1.214,0.307-1.793c0.463-1.238,1.57-1.718,2.701-1.515c0.973,0.174,1.605,0.786,2.021,1.646
			c0.463,0.954,0.551,1.952,0.336,2.981c-0.076,0.353-0.16,0.704-0.25,1.101c-0.051-0.079-0.082-0.123-0.107-0.167
			c-0.771-1.271-1.545-2.54-2.314-3.813c-0.139-0.227-0.314-0.377-0.598-0.369c-0.242,0.007-0.402,0.141-0.531,0.334
			c-0.482,0.731-0.967,1.462-1.451,2.194c-0.025,0.035-0.047,0.069-0.072,0.104C380.744,301.369,380.73,301.367,380.715,301.365z"/>
		<path fill-rule="evenodd" clip-rule="evenodd" fill="#EB5D5D" d="M379.162,300.289c-0.064-0.37-0.131-0.74-0.195-1.109
			c-0.096-0.549-0.188-1.098-0.285-1.646c-0.092-0.513-0.576-0.712-1.008-0.414c-0.545,0.377-1.086,0.76-1.629,1.142
			c-0.686,0.482-1.373,0.964-2.061,1.447c-0.041,0.029-0.086,0.055-0.146,0.093c0.125-0.842,0.264-1.663,0.662-2.4
			c0.445-0.813,1.059-1.473,1.926-1.85c1.061-0.46,2.262-0.175,3.01,0.708c0.375,0.444,0.506,0.98,0.49,1.546
			C379.898,298.697,379.566,299.501,379.162,300.289z"/>
	</g>
	<g>
		<path fill-rule="evenodd" clip-rule="evenodd" fill="#F39200" d="M338.764,289.695c-4.205-0.001-7.609-3.396-7.609-7.589
			c-0.002-4.232,3.395-7.619,7.643-7.616c4.158,0.003,7.564,3.421,7.561,7.597C346.352,286.298,342.963,289.695,338.764,289.695z"/>
		<path fill-rule="evenodd" clip-rule="evenodd" fill="#F39200" d="M343.77,290.213c0.066,1.717,0.137,3.445,0.207,5.218
			c-1.156-1.352-2.281-2.668-3.396-3.974c0.551-0.176,1.105-0.324,1.633-0.53C342.742,290.721,343.244,290.457,343.77,290.213z"/>
		<path fill-rule="evenodd" clip-rule="evenodd" fill="#F39200" d="M331.559,288.36c0.426,0.386,0.834,0.791,1.277,1.146
			c0.443,0.352,0.924,0.656,1.393,0.986c-1.449,0.919-2.916,1.846-4.414,2.792C330.404,291.617,330.986,289.98,331.559,288.36z"/>
		<path fill-rule="evenodd" clip-rule="evenodd" fill="#F39200" d="M333.74,274.011c-0.066-1.753-0.135-3.482-0.203-5.21
			c0.008-0.005,0.016-0.009,0.027-0.014c1.121,1.316,2.246,2.631,3.387,3.97C335.811,273.002,334.752,273.41,333.74,274.011z"/>
		<path fill-rule="evenodd" clip-rule="evenodd" fill="#F39200" d="M330.375,277.603c-0.941-1.491-1.867-2.955-2.816-4.451
			c1.67,0.592,3.307,1.171,4.961,1.759C331.658,275.692,330.941,276.572,330.375,277.603z"/>
		<path fill-rule="evenodd" clip-rule="evenodd" fill="#F39200" d="M341.861,273.104c-1.115-0.363-2.236-0.529-3.408-0.519
			c0.816-1.548,1.619-3.08,2.426-4.612c0.008,0.002,0.02,0.005,0.029,0.006C341.223,269.68,341.541,271.38,341.861,273.104z"/>
		<path fill-rule="evenodd" clip-rule="evenodd" fill="#F39200" d="M339.055,291.598c-0.814,1.552-1.621,3.082-2.424,4.612
			c-0.012,0-0.023-0.001-0.033-0.001c-0.316-1.698-0.627-3.397-0.949-5.127C336.764,291.437,337.879,291.619,339.055,291.598z"/>
		<path fill-rule="evenodd" clip-rule="evenodd" fill="#F39200" d="M329.42,283.898c0.246,1.14,0.65,2.196,1.256,3.206
			c-1.754,0.07-3.482,0.139-5.26,0.21C326.764,286.164,328.082,285.039,329.42,283.898z"/>
		<path fill-rule="evenodd" clip-rule="evenodd" fill="#F39200" d="M352.059,276.898c-1.316,1.123-2.635,2.246-3.969,3.387
			c-0.246-1.143-0.654-2.2-1.26-3.208c1.754-0.069,3.482-0.137,5.209-0.205C352.045,276.881,352.051,276.889,352.059,276.898z"/>
		<path fill-rule="evenodd" clip-rule="evenodd" fill="#F39200" d="M345.949,275.824c-0.426-0.387-0.83-0.793-1.275-1.15
			c-0.439-0.353-0.924-0.654-1.393-0.984c1.453-0.917,2.916-1.844,4.412-2.79C347.104,272.567,346.523,274.204,345.949,275.824z"/>
		<path fill-rule="evenodd" clip-rule="evenodd" fill="#F39200" d="M352.861,284.249c-1.699,0.313-3.398,0.628-5.086,0.94
			c0.125-0.563,0.273-1.113,0.359-1.673c0.086-0.56,0.107-1.129,0.156-1.706c1.516,0.794,3.045,1.6,4.576,2.404
			C352.867,284.227,352.861,284.238,352.861,284.249z"/>
		<path fill-rule="evenodd" clip-rule="evenodd" fill="#F39200" d="M349.947,291.029c-1.67-0.59-3.307-1.169-4.961-1.754
			c0.865-0.778,1.572-1.665,2.148-2.692C348.07,288.067,349,289.533,349.947,291.029z"/>
		<path fill-rule="evenodd" clip-rule="evenodd" fill="#F39200" d="M329.248,282.391c-1.553-0.816-3.082-1.62-4.611-2.423
			c0-0.01,0-0.021,0.004-0.031c1.699-0.314,3.398-0.628,5.127-0.948C329.406,280.099,329.234,281.218,329.248,282.391z"/>
	</g>
	<g>
		<path fill-rule="evenodd" clip-rule="evenodd" d="M308.869,328.31c-0.885,0.17-1.68,0.331-2.479,0.473
			c-3.563,0.623-7.143,0.726-10.736,0.354c-4.601-0.474-8.969-1.746-13.058-3.91c-5.982-3.166-10.753-7.622-14.169-13.493
			c-0.303-0.521-0.256-1.006,0.124-1.334c0.48-0.411,1.116-0.264,1.499,0.308c0.904,1.351,1.748,2.756,2.762,4.021
			c4.267,5.321,9.675,9.009,16.175,11.078c4.568,1.454,9.251,1.877,14.016,1.483c2.26-0.186,4.484-0.582,6.67-1.186
			c0.23-0.063,0.365-0.183,0.463-0.394c0.291-0.626,0.596-1.247,0.936-1.951c-0.525,0.139-0.971,0.254-1.416,0.377
			c-2.342,0.645-4.682,1.29-7.021,1.943c-2.094,0.583-4.213-0.235-5.27-2.135c-0.332-0.595-0.466-1.302-0.676-1.962
			c-0.549-1.722-1.09-3.444-1.636-5.167c-0.023-0.075-0.057-0.146-0.11-0.281c-0.203,0.316-0.376,0.583-0.546,0.853
			c-1.358,2.159-2.709,4.321-4.072,6.478c-0.77,1.218-2.226,1.625-3.444,0.977c-1.374-0.731-1.799-2.37-0.959-3.733
			c0.648-1.049,1.309-2.09,1.968-3.135c1.523-2.421,3.063-4.833,4.567-7.268c0.761-1.234,1.81-1.966,3.271-1.89
			c1.59,0.084,2.759,0.915,3.435,2.353c0.496,1.048,0.908,2.136,1.355,3.207c0.469,1.125,0.938,2.251,1.418,3.415
			c0.221-0.057,0.426-0.102,0.627-0.162c3.297-0.967,6.584-1.956,9.885-2.9c1.574-0.45,3.051-0.193,4.197,1.038
			c1.199,1.284,1.494,2.829,0.875,4.47c-0.389,1.026-0.928,1.996-1.398,2.992c-0.047,0.103-0.09,0.208-0.17,0.401
			c0.447-0.241,0.818-0.427,1.174-0.633c5.813-3.361,10.092-8.116,12.928-14.187c0.129-0.283,0.254-0.568,0.387-0.849
			c0.262-0.551,0.801-0.774,1.303-0.541c0.494,0.229,0.688,0.761,0.451,1.304c-2.646,6.098-6.67,11.06-12.209,14.77
			c-1.602,1.075-3.293,1.997-5.068,2.762c-0.244,0.106-0.398,0.259-0.516,0.502c-1.645,3.407-3.293,6.809-4.939,10.214
			c-0.432,0.892-1.105,1.412-2.117,1.378c-1.531-0.054-2.498-1.612-1.857-3.026c0.584-1.286,1.221-2.548,1.836-3.819
			C307.824,330.46,308.334,329.418,308.869,328.31z"/>
		<path fill-rule="evenodd" clip-rule="evenodd" d="M320.59,315.991c-2.418-0.007-4.396-1.986-4.389-4.392
			c0.012-2.445,1.979-4.414,4.41-4.412c2.441,0.003,4.396,1.961,4.41,4.417C325.031,314.021,323.039,315.995,320.59,315.991z"/>
	</g>
	<g>
		<path fill-rule="evenodd" clip-rule="evenodd" fill="#F39200" d="M239.521,345.658c-2.43,0-4.396-1.96-4.396-4.383
			c-0.001-2.444,1.962-4.401,4.414-4.4c2.403,0.002,4.368,1.976,4.367,4.389C243.905,343.696,241.947,345.658,239.521,345.658z"/>
		<path fill-rule="evenodd" clip-rule="evenodd" fill="#F39200" d="M242.413,345.957c0.038,0.992,0.078,1.99,0.118,3.014
			c-0.666-0.78-1.316-1.541-1.96-2.294c0.317-0.103,0.637-0.188,0.943-0.308C241.818,346.251,242.109,346.098,242.413,345.957z"/>
		<path fill-rule="evenodd" clip-rule="evenodd" fill="#F39200" d="M235.36,344.887c0.246,0.223,0.481,0.457,0.738,0.662
			c0.255,0.203,0.532,0.379,0.805,0.57c-0.839,0.531-1.687,1.066-2.551,1.613C234.694,346.768,235.027,345.822,235.36,344.887z"/>
		<path fill-rule="evenodd" clip-rule="evenodd" fill="#F39200" d="M236.621,336.599c-0.04-1.013-0.08-2.011-0.119-3.01
			c0.007-0.001,0.011-0.004,0.018-0.007c0.647,0.76,1.296,1.52,1.954,2.293C237.815,336.016,237.203,336.251,236.621,336.599z"/>
		<path fill-rule="evenodd" clip-rule="evenodd" fill="#F39200" d="M234.675,338.674c-0.545-0.861-1.079-1.708-1.626-2.572
			c0.965,0.342,1.91,0.677,2.866,1.016C235.417,337.569,235.003,338.078,234.675,338.674z"/>
		<path fill-rule="evenodd" clip-rule="evenodd" fill="#F39200" d="M241.31,336.075c-0.646-0.21-1.292-0.306-1.968-0.299
			c0.47-0.895,0.936-1.78,1.4-2.664c0.005,0.001,0.012,0.002,0.019,0.003C240.942,334.097,241.125,335.079,241.31,336.075z"/>
		<path fill-rule="evenodd" clip-rule="evenodd" fill="#F39200" d="M239.689,346.756c-0.472,0.897-0.937,1.781-1.399,2.664
			c-0.007,0-0.014,0-0.02,0c-0.182-0.98-0.363-1.963-0.548-2.962C238.366,346.664,239.01,346.769,239.689,346.756z"/>
		<path fill-rule="evenodd" clip-rule="evenodd" fill="#F39200" d="M234.123,342.31c0.144,0.658,0.378,1.269,0.727,1.852
			c-1.013,0.041-2.011,0.081-3.038,0.122C232.59,343.618,233.351,342.969,234.123,342.31z"/>
		<path fill-rule="evenodd" clip-rule="evenodd" fill="#F39200" d="M247.199,338.267c-0.759,0.649-1.52,1.297-2.292,1.957
			c-0.141-0.66-0.377-1.271-0.727-1.853c1.014-0.04,2.012-0.08,3.01-0.118C247.194,338.256,247.197,338.261,247.199,338.267z"/>
		<path fill-rule="evenodd" clip-rule="evenodd" fill="#F39200" d="M243.672,337.647c-0.246-0.224-0.48-0.459-0.737-0.665
			c-0.255-0.204-0.533-0.378-0.805-0.568c0.838-0.53,1.686-1.065,2.55-1.612C244.337,335.765,244.003,336.71,243.672,337.647z"/>
		<path fill-rule="evenodd" clip-rule="evenodd" fill="#F39200" d="M247.664,342.513c-0.981,0.181-1.963,0.362-2.938,0.543
			c0.072-0.325,0.159-0.643,0.208-0.967c0.05-0.323,0.063-0.652,0.091-0.985c0.874,0.459,1.76,0.925,2.645,1.389
			C247.667,342.5,247.666,342.506,247.664,342.513z"/>
		<path fill-rule="evenodd" clip-rule="evenodd" fill="#F39200" d="M245.979,346.429c-0.963-0.342-1.908-0.675-2.863-1.013
			c0.501-0.45,0.907-0.961,1.24-1.555C244.897,344.718,245.433,345.565,245.979,346.429z"/>
		<path fill-rule="evenodd" clip-rule="evenodd" fill="#F39200" d="M234.025,341.439c-0.896-0.472-1.78-0.936-2.663-1.399
			c0-0.006,0-0.013,0.001-0.018c0.982-0.182,1.965-0.364,2.961-0.548C234.116,340.114,234.017,340.762,234.025,341.439z"/>
	</g>
	<g>
		<path fill-rule="evenodd" clip-rule="evenodd" fill="#F39200" d="M253.058,281.44c-2.43,0-4.396-1.961-4.396-4.383
			c0-2.445,1.963-4.401,4.415-4.399c2.403,0.001,4.368,1.976,4.366,4.387C257.442,279.478,255.483,281.44,253.058,281.44z"/>
		<path fill-rule="evenodd" clip-rule="evenodd" fill="#F39200" d="M255.95,281.739c0.039,0.993,0.077,1.99,0.117,3.015
			c-0.665-0.781-1.315-1.542-1.96-2.295c0.317-0.103,0.638-0.188,0.943-0.308C255.355,282.033,255.645,281.88,255.95,281.739z"/>
		<path fill-rule="evenodd" clip-rule="evenodd" fill="#F39200" d="M248.896,280.669c0.247,0.224,0.482,0.458,0.739,0.663
			c0.254,0.203,0.532,0.378,0.804,0.57c-0.838,0.53-1.687,1.066-2.55,1.612C248.23,282.55,248.564,281.605,248.896,280.669z"/>
		<path fill-rule="evenodd" clip-rule="evenodd" fill="#F39200" d="M250.158,272.381c-0.04-1.013-0.08-2.011-0.119-3.01
			c0.006-0.001,0.011-0.004,0.017-0.007c0.647,0.76,1.296,1.52,1.955,2.293C251.351,271.798,250.739,272.033,250.158,272.381z"/>
		<path fill-rule="evenodd" clip-rule="evenodd" fill="#F39200" d="M248.211,274.455c-0.544-0.86-1.079-1.707-1.625-2.571
			c0.964,0.342,1.909,0.677,2.865,1.015C248.954,273.352,248.541,273.86,248.211,274.455z"/>
		<path fill-rule="evenodd" clip-rule="evenodd" fill="#F39200" d="M254.846,271.856c-0.645-0.21-1.292-0.305-1.968-0.298
			c0.471-0.895,0.936-1.78,1.4-2.665c0.006,0,0.013,0.002,0.019,0.003C254.479,269.879,254.662,270.861,254.846,271.856z"/>
		<path fill-rule="evenodd" clip-rule="evenodd" fill="#F39200" d="M253.225,282.539c-0.471,0.897-0.936,1.781-1.398,2.664
			c-0.008,0-0.015,0-0.021,0c-0.182-0.98-0.362-1.963-0.548-2.961C251.902,282.446,252.547,282.551,253.225,282.539z"/>
		<path fill-rule="evenodd" clip-rule="evenodd" fill="#F39200" d="M247.66,278.092c0.143,0.657,0.377,1.268,0.726,1.851
			c-1.012,0.041-2.01,0.08-3.037,0.122C246.127,279.4,246.888,278.751,247.66,278.092z"/>
		<path fill-rule="evenodd" clip-rule="evenodd" fill="#F39200" d="M260.736,274.049c-0.76,0.648-1.52,1.297-2.292,1.957
			c-0.141-0.661-0.378-1.271-0.728-1.854c1.014-0.04,2.012-0.079,3.01-0.119C260.731,274.039,260.733,274.043,260.736,274.049z"/>
		<path fill-rule="evenodd" clip-rule="evenodd" fill="#F39200" d="M257.209,273.428c-0.247-0.224-0.48-0.459-0.737-0.664
			c-0.256-0.204-0.533-0.378-0.806-0.569c0.839-0.53,1.686-1.065,2.55-1.612C257.874,271.546,257.54,272.492,257.209,273.428z"/>
		<path fill-rule="evenodd" clip-rule="evenodd" fill="#F39200" d="M261.201,278.294c-0.982,0.182-1.963,0.363-2.938,0.543
			c0.072-0.325,0.158-0.643,0.208-0.966s0.062-0.652,0.091-0.985c0.874,0.459,1.76,0.924,2.644,1.389
			C261.204,278.282,261.202,278.289,261.201,278.294z"/>
		<path fill-rule="evenodd" clip-rule="evenodd" fill="#F39200" d="M259.516,282.211c-0.964-0.342-1.909-0.676-2.863-1.013
			c0.5-0.45,0.907-0.962,1.239-1.555C258.434,280.5,258.969,281.347,259.516,282.211z"/>
		<path fill-rule="evenodd" clip-rule="evenodd" fill="#F39200" d="M247.562,277.221c-0.896-0.472-1.781-0.936-2.663-1.4
			c0-0.006,0-0.012,0.001-0.018c0.982-0.181,1.964-0.363,2.961-0.547C247.652,275.897,247.553,276.543,247.562,277.221z"/>
	</g>
	<g>
		<path fill-rule="evenodd" clip-rule="evenodd" fill="#F39200" d="M358.092,394.879c-2.43-0.001-4.396-1.961-4.396-4.383
			c-0.002-2.443,1.963-4.401,4.416-4.399c2.402,0.002,4.367,1.976,4.365,4.389C362.477,392.918,360.516,394.879,358.092,394.879z"/>
		<path fill-rule="evenodd" clip-rule="evenodd" fill="#F39200" d="M360.982,395.179c0.037,0.992,0.08,1.989,0.117,3.013
			c-0.666-0.779-1.316-1.542-1.959-2.294c0.318-0.102,0.637-0.188,0.943-0.307C360.387,395.472,360.678,395.319,360.982,395.179z"/>
		<path fill-rule="evenodd" clip-rule="evenodd" fill="#F39200" d="M353.93,394.108c0.246,0.223,0.48,0.458,0.738,0.663
			c0.254,0.204,0.531,0.378,0.807,0.569c-0.84,0.532-1.689,1.067-2.553,1.614C353.262,395.99,353.598,395.044,353.93,394.108z"/>
		<path fill-rule="evenodd" clip-rule="evenodd" fill="#F39200" d="M355.189,385.82c-0.041-1.013-0.078-2.011-0.117-3.01
			c0.006-0.001,0.01-0.004,0.016-0.008c0.646,0.762,1.297,1.52,1.955,2.294C356.385,385.238,355.773,385.474,355.189,385.82z"/>
		<path fill-rule="evenodd" clip-rule="evenodd" fill="#F39200" d="M353.246,387.895c-0.545-0.861-1.082-1.707-1.627-2.57
			c0.963,0.34,1.908,0.676,2.867,1.015C353.986,386.792,353.574,387.3,353.246,387.895z"/>
		<path fill-rule="evenodd" clip-rule="evenodd" fill="#F39200" d="M359.881,385.296c-0.646-0.209-1.293-0.305-1.969-0.298
			c0.469-0.895,0.938-1.78,1.4-2.665c0.006,0.001,0.012,0.003,0.02,0.004C359.514,383.318,359.695,384.301,359.881,385.296z"/>
		<path fill-rule="evenodd" clip-rule="evenodd" fill="#F39200" d="M358.26,395.978c-0.473,0.897-0.936,1.781-1.4,2.665
			c-0.006,0-0.014,0-0.02,0c-0.182-0.981-0.365-1.963-0.549-2.963C356.934,395.885,357.58,395.99,358.26,395.978z"/>
		<path fill-rule="evenodd" clip-rule="evenodd" fill="#F39200" d="M352.691,391.532c0.145,0.657,0.377,1.268,0.729,1.85
			c-1.014,0.041-2.014,0.082-3.039,0.123C351.16,392.839,351.922,392.19,352.691,391.532z"/>
		<path fill-rule="evenodd" clip-rule="evenodd" fill="#F39200" d="M365.77,387.488c-0.76,0.649-1.521,1.298-2.291,1.956
			c-0.143-0.66-0.377-1.271-0.729-1.852c1.014-0.041,2.012-0.08,3.008-0.119C365.764,387.478,365.768,387.483,365.77,387.488z"/>
		<path fill-rule="evenodd" clip-rule="evenodd" fill="#F39200" d="M362.242,386.868c-0.246-0.224-0.48-0.459-0.736-0.665
			c-0.256-0.203-0.533-0.378-0.807-0.569c0.84-0.53,1.688-1.065,2.551-1.61C362.906,384.985,362.572,385.933,362.242,386.868z"/>
		<path fill-rule="evenodd" clip-rule="evenodd" fill="#F39200" d="M366.234,391.734c-0.984,0.181-1.965,0.362-2.938,0.543
			c0.068-0.325,0.16-0.643,0.207-0.967c0.051-0.322,0.061-0.651,0.092-0.985c0.873,0.46,1.758,0.924,2.643,1.388
			C366.236,391.722,366.236,391.728,366.234,391.734z"/>
		<path fill-rule="evenodd" clip-rule="evenodd" fill="#F39200" d="M364.551,395.651c-0.965-0.342-1.908-0.676-2.865-1.013
			c0.5-0.451,0.906-0.962,1.238-1.556C363.467,393.939,364.004,394.786,364.551,395.651z"/>
		<path fill-rule="evenodd" clip-rule="evenodd" fill="#F39200" d="M352.596,390.661c-0.898-0.471-1.781-0.937-2.662-1.4
			c0-0.005,0-0.012,0-0.019c0.982-0.181,1.963-0.362,2.961-0.547C352.686,389.337,352.586,389.983,352.596,390.661z"/>
	</g>
	<g>
		<path fill-rule="evenodd" clip-rule="evenodd" fill="#F39200" d="M384.982,343.866c-2.43-0.001-4.396-1.961-4.396-4.383
			c-0.002-2.444,1.965-4.401,4.412-4.399c2.406,0.001,4.371,1.976,4.369,4.388C389.367,341.904,387.408,343.866,384.982,343.866z"/>
		<path fill-rule="evenodd" clip-rule="evenodd" fill="#F39200" d="M387.875,344.165c0.037,0.992,0.078,1.99,0.115,3.013
			c-0.664-0.78-1.316-1.542-1.957-2.294c0.318-0.102,0.635-0.188,0.943-0.308C387.279,344.459,387.57,344.306,387.875,344.165z"/>
		<path fill-rule="evenodd" clip-rule="evenodd" fill="#F39200" d="M380.82,343.095c0.246,0.223,0.48,0.457,0.738,0.663
			c0.256,0.203,0.533,0.378,0.807,0.568c-0.84,0.532-1.688,1.067-2.553,1.614C380.152,344.976,380.49,344.03,380.82,343.095z"/>
		<path fill-rule="evenodd" clip-rule="evenodd" fill="#F39200" d="M382.08,334.807c-0.041-1.013-0.078-2.011-0.117-3.01
			c0.006-0.001,0.012-0.004,0.018-0.008c0.645,0.761,1.295,1.52,1.955,2.293C383.275,334.224,382.664,334.46,382.08,334.807z"/>
		<path fill-rule="evenodd" clip-rule="evenodd" fill="#F39200" d="M380.137,336.881c-0.543-0.861-1.08-1.707-1.627-2.571
			c0.965,0.341,1.908,0.676,2.867,1.016C380.877,335.777,380.465,336.285,380.137,336.881z"/>
		<path fill-rule="evenodd" clip-rule="evenodd" fill="#F39200" d="M386.771,334.282c-0.646-0.21-1.293-0.305-1.969-0.298
			c0.471-0.896,0.938-1.78,1.402-2.665c0.004,0.001,0.01,0.002,0.018,0.003C386.402,332.305,386.588,333.287,386.771,334.282z"/>
		<path fill-rule="evenodd" clip-rule="evenodd" fill="#F39200" d="M385.15,344.964c-0.473,0.897-0.936,1.78-1.4,2.664
			c-0.006,0-0.014,0-0.02,0c-0.182-0.981-0.363-1.963-0.547-2.962C383.826,344.872,384.473,344.977,385.15,344.964z"/>
		<path fill-rule="evenodd" clip-rule="evenodd" fill="#F39200" d="M379.584,340.518c0.143,0.658,0.375,1.268,0.727,1.851
			c-1.014,0.041-2.012,0.081-3.039,0.123C378.051,341.826,378.813,341.177,379.584,340.518z"/>
		<path fill-rule="evenodd" clip-rule="evenodd" fill="#F39200" d="M392.66,336.474c-0.76,0.649-1.52,1.297-2.293,1.957
			c-0.139-0.66-0.379-1.27-0.725-1.853c1.012-0.041,2.012-0.079,3.006-0.118C392.654,336.464,392.658,336.469,392.66,336.474z"/>
		<path fill-rule="evenodd" clip-rule="evenodd" fill="#F39200" d="M389.135,335.855c-0.248-0.224-0.48-0.459-0.74-0.665
			c-0.254-0.204-0.531-0.378-0.803-0.569c0.838-0.53,1.684-1.065,2.549-1.611C389.799,333.972,389.465,334.918,389.135,335.855z"/>
		<path fill-rule="evenodd" clip-rule="evenodd" fill="#F39200" d="M393.125,340.72c-0.982,0.182-1.963,0.363-2.938,0.544
			c0.07-0.325,0.156-0.643,0.209-0.967c0.049-0.323,0.059-0.651,0.09-0.985c0.873,0.459,1.76,0.924,2.643,1.388
			C393.127,340.708,393.127,340.714,393.125,340.72z"/>
		<path fill-rule="evenodd" clip-rule="evenodd" fill="#F39200" d="M391.441,344.637c-0.965-0.342-1.908-0.676-2.865-1.013
			c0.5-0.45,0.908-0.962,1.238-1.556C390.359,342.925,390.896,343.772,391.441,344.637z"/>
		<path fill-rule="evenodd" clip-rule="evenodd" fill="#F39200" d="M379.488,339.647c-0.898-0.472-1.781-0.937-2.664-1.4
			c0-0.005,0-0.012,0-0.017c0.982-0.182,1.963-0.363,2.963-0.548C379.578,338.324,379.477,338.969,379.488,339.647z"/>
	</g>
</g>
<text transform="matrix(1 0 0 1 96.0674 664.6396)" font-family="'Haettenschweiler'" font-size="63.2437">BRAINS ON VACATION</text>
</svg>
