<?xml version="1.0" encoding="utf-8"?>
<!-- Generator: Adobe Illustrator 16.0.0, SVG Export Plug-In . SVG Version: 6.00 Build 0)  -->
<!DOCTYPE svg PUBLIC "-//W3C//DTD SVG 1.1//EN" "http://www.w3.org/Graphics/SVG/1.1/DTD/svg11.dtd">
<svg version="1.1" id="Layer_1" xmlns="http://www.w3.org/2000/svg" xmlns:xlink="http://www.w3.org/1999/xlink" x="0px" y="0px"
	 width="595.28px" height="841.89px" viewBox="0 0 595.28 841.89" enable-background="new 0 0 595.28 841.89" xml:space="preserve">
<g>
	<path fill-rule="evenodd" clip-rule="evenodd" fill="#FFFFFF" d="M549.983,398.616c0.006-1.884,0.001-3.622,0.028-5.36
		c0.002-0.131,0.19-0.305,0.333-0.377c1.276-0.646,2.454-1.43,3.521-2.387c5.164-4.635,6.564-12.22,3.39-18.384
		c-4.342-8.425-15.069-10.948-22.765-5.356c-6.639,4.826-8.207,14.416-3.465,21.119c1.561,2.201,3.545,3.895,5.981,5.054
		c0.193,0.093,0.329,0.171,0.327,0.437c-0.018,1.666-0.011,3.335-0.014,5.004c0,0.055-0.016,0.109-0.037,0.258
		c-0.858-0.358-1.688-0.691-2.502-1.053c-0.645-0.281-0.781-0.258-1.178,0.334c-0.309,0.457-0.608,0.921-0.917,1.377
		c-0.296,0.436-0.51,0.487-0.938,0.207c-0.787-0.518-1.572-1.041-2.354-1.568c-0.426-0.289-0.457-0.498-0.162-0.943
		c0.325-0.495,0.657-0.989,0.981-1.486c0.286-0.434,0.243-0.668-0.124-1.027c-0.613-0.596-1.216-1.202-1.814-1.811
		c-0.323-0.327-0.577-0.376-0.961-0.125c-0.533,0.352-1.057,0.717-1.591,1.067c-0.373,0.245-0.589,0.208-0.843-0.161
		c-0.561-0.813-1.107-1.635-1.656-2.453c-0.217-0.324-0.152-0.603,0.171-0.82c0.528-0.357,1.06-0.709,1.589-1.068
		c0.393-0.264,0.449-0.495,0.268-0.924c-0.347-0.813-0.693-1.627-1.022-2.448c-0.156-0.391-0.414-0.53-0.819-0.444
		c-0.609,0.129-1.221,0.251-1.836,0.369c-0.49,0.094-0.67-0.021-0.771-0.507c-0.199-0.937-0.388-1.876-0.572-2.815
		c-0.089-0.45,0.045-0.646,0.497-0.742c0.624-0.133,1.249-0.26,1.876-0.379c0.413-0.079,0.582-0.313,0.572-0.733
		c-0.02-0.884-0.016-1.769-0.014-2.653c0-0.479-0.125-0.648-0.604-0.746c-0.597-0.123-1.196-0.231-1.794-0.353
		c-0.518-0.104-0.641-0.276-0.542-0.785c0.177-0.925,0.359-1.85,0.55-2.774c0.098-0.484,0.284-0.61,0.768-0.523
		c0.613,0.113,1.225,0.241,1.837,0.356c0.485,0.091,0.648-0.018,0.829-0.472c0.324-0.809,0.656-1.611,0.993-2.413
		c0.185-0.442,0.137-0.661-0.251-0.925c-0.518-0.352-1.04-0.689-1.555-1.041c-0.41-0.279-0.456-0.501-0.186-0.91
		c0.509-0.777,1.022-1.551,1.541-2.32c0.316-0.465,0.527-0.494,1.012-0.174c0.495,0.328,0.986,0.662,1.484,0.986
		c0.392,0.256,0.635,0.213,0.959-0.119c0.607-0.621,1.221-1.238,1.84-1.85c0.333-0.327,0.379-0.559,0.121-0.955
		c-0.346-0.537-0.7-1.067-1.065-1.592c-0.229-0.327-0.185-0.605,0.13-0.822c0.838-0.576,1.68-1.145,2.527-1.703
		c0.312-0.206,0.58-0.104,0.781,0.197c0.356,0.528,0.711,1.059,1.07,1.587c0.271,0.396,0.49,0.448,0.924,0.264
		c0.8-0.339,1.602-0.675,2.408-1.001c0.443-0.18,0.57-0.367,0.481-0.833c-0.116-0.612-0.253-1.223-0.369-1.836
		c-0.093-0.487,0.028-0.673,0.515-0.772c0.922-0.195,1.846-0.381,2.771-0.563c0.506-0.098,0.683,0.026,0.789,0.543
		c0.129,0.611,0.256,1.221,0.372,1.834c0.081,0.416,0.323,0.57,0.739,0.563c0.869-0.021,1.74-0.018,2.611-0.012
		c0.51,0.004,0.672-0.105,0.777-0.613c0.127-0.611,0.236-1.225,0.363-1.837c0.094-0.454,0.285-0.583,0.744-0.495
		c0.941,0.18,1.88,0.364,2.817,0.559c0.479,0.099,0.597,0.287,0.507,0.779c-0.11,0.598-0.239,1.193-0.35,1.793
		c-0.096,0.51,0.017,0.677,0.484,0.863c0.796,0.316,1.586,0.643,2.373,0.978c0.467,0.199,0.679,0.155,0.959-0.255
		c0.352-0.516,0.691-1.039,1.045-1.553c0.265-0.387,0.485-0.436,0.877-0.18c0.813,0.53,1.623,1.068,2.426,1.613
		c0.359,0.244,0.396,0.483,0.156,0.852c-0.342,0.522-0.696,1.037-1.041,1.557c-0.27,0.412-0.234,0.65,0.117,0.992
		c0.611,0.6,1.218,1.202,1.819,1.812c0.369,0.372,0.585,0.405,1.025,0.111c0.506-0.338,1.009-0.683,1.519-1.015
		c0.392-0.258,0.617-0.224,0.883,0.158c0.553,0.801,1.094,1.606,1.628,2.419c0.244,0.369,0.198,0.595-0.167,0.85
		c-0.521,0.365-1.059,0.712-1.586,1.071c-0.391,0.267-0.439,0.486-0.25,0.928c0.34,0.799,0.676,1.602,1.002,2.407
		c0.182,0.445,0.365,0.563,0.838,0.472c0.596-0.115,1.192-0.248,1.791-0.361c0.517-0.099,0.706,0.021,0.811,0.518
		c0.194,0.922,0.385,1.846,0.566,2.771c0.094,0.486-0.03,0.67-0.514,0.773c-0.609,0.13-1.224,0.244-1.834,0.373
		c-0.475,0.102-0.594,0.276-0.59,0.758c0.008,0.871,0.008,1.742,0.005,2.611c-0.002,0.484,0.12,0.66,0.59,0.758
		c0.624,0.13,1.253,0.244,1.878,0.376c0.435,0.093,0.564,0.282,0.482,0.716c-0.18,0.954-0.365,1.908-0.561,2.86
		c-0.094,0.454-0.289,0.578-0.75,0.492c-0.613-0.113-1.223-0.247-1.836-0.362c-0.504-0.094-0.665,0.019-0.855,0.5
		c-0.316,0.794-0.641,1.584-0.976,2.372c-0.192,0.456-0.143,0.676,0.272,0.956c0.493,0.333,0.99,0.658,1.482,0.99
		c0.461,0.311,0.513,0.525,0.223,0.971c-0.512,0.775-1.026,1.548-1.547,2.316c-0.295,0.438-0.498,0.475-0.936,0.189
		c-0.497-0.323-0.99-0.656-1.486-0.984c-0.459-0.301-0.686-0.259-1.059,0.129c-0.584,0.607-1.18,1.199-1.781,1.788
		c-0.352,0.342-0.398,0.582-0.129,0.989c0.344,0.52,0.697,1.033,1.044,1.553c0.255,0.388,0.212,0.621-0.162,0.879
		c-0.792,0.539-1.584,1.073-2.382,1.604c-0.402,0.269-0.631,0.221-0.912-0.185c-0.346-0.504-0.68-1.014-1.023-1.516
		c-0.296-0.435-0.506-0.479-0.994-0.266C551.787,397.855,550.934,398.212,549.983,398.616z"/>
	<path fill-rule="evenodd" clip-rule="evenodd" fill="#FFFFFF" d="M540.274,413.99c-1.34-0.719-2.352-1.67-3.085-2.902
		c-2.201-3.711-0.99-8.414,2.729-10.602c0.252-0.149,0.328-0.302,0.326-0.58c-0.007-4.44-0.01-8.882,0.002-13.322
		c0.001-0.351-0.113-0.533-0.411-0.71c-4.972-2.966-4.987-10.196-0.037-13.185c0.136-0.08,0.275-0.15,0.457-0.248
		c0.011,0.174,0.023,0.3,0.024,0.426c0.001,1.64,0.003,3.278,0,4.919c-0.002,1.169,0.479,1.858,1.642,1.965
		c1.251,0.11,2.524,0.106,3.774-0.003c1.141-0.1,1.629-0.781,1.629-1.93c0.004-1.609,0-3.221,0-4.831
		c0-0.157,0.008-0.315,0.015-0.615c0.563,0.403,1.079,0.712,1.528,1.103c3.945,3.428,3.404,9.689-1.074,12.387
		c-0.341,0.205-0.428,0.425-0.426,0.793c0.012,4.384,0.014,8.766,0,13.149c0,0.368,0.115,0.562,0.427,0.751
		c4.943,3.009,5.06,10.193-0.147,13.275c-0.072,0.041-0.149,0.075-0.287,0.144c-0.012-0.198-0.025-0.35-0.025-0.501
		c0-1.611,0.002-3.221-0.001-4.831c-0.004-1.207-0.483-1.87-1.677-1.978c-1.221-0.109-2.468-0.112-3.689-0.008
		c-1.189,0.103-1.682,0.783-1.682,1.975c0,1.596,0.003,3.193,0.002,4.789C540.288,413.578,540.282,413.734,540.274,413.99z"/>
	<path fill-rule="evenodd" clip-rule="evenodd" fill="#FFFFFF" d="M549.957,390.964c0.014-1.031,0.016-1.987,0.051-2.942
		c0.005-0.138,0.146-0.299,0.268-0.4c3.363-2.819,4.713-6.398,3.905-10.708c-0.802-4.276-4.327-7.678-8.599-8.448
		c-4.406-0.793-8.82,1.146-11.14,4.898c-2.349,3.795-2.188,8.584,0.47,12.107c0.623,0.824,1.447,1.493,2.174,2.236
		c0.088,0.088,0.219,0.194,0.221,0.293c0.015,0.981,0.004,1.964,0.002,3.025c-2.168-1.167-3.854-2.741-5.119-4.75
		c-1.738-2.756-2.379-5.771-1.951-8.996c0.867-6.535,6.352-11.465,12.961-11.678c6.539-0.211,12.33,4.369,13.627,10.791
		C558.184,383.106,554.383,388.742,549.957,390.964z"/>
</g>
<g>
	<path fill-rule="evenodd" clip-rule="evenodd" fill="none" stroke="#4B2461" stroke-width="4" stroke-miterlimit="10" d="
		M468.365,420.94c0,94.294-76.436,170.729-170.726,170.729c-94.289,0-170.724-76.436-170.724-170.729
		c0-94.286,76.435-170.721,170.724-170.721C391.93,250.22,468.365,326.654,468.365,420.94z"/>
	<g transform="translate(0.000000,1280.000000) scale(0.100000,-0.100000)">
		<path fill="#4B2461" d="M3371.933,7407.304c100.967,8.271,191.016,44.463,281.26,112.969
			c15.703,11.816,41.66,35.107,77.686,69.727c76.709,73.525,104.932,99.736,134.052,124.58
			c121.094,102.646,210.85,146.836,266.406,131.162c13.418-3.828,19.766-7.393,40.195-23.066
			c20.332-15.664,26.66-17.666,38.701-12.744c25.117,10.586,13.447,46.68-24.033,74.434
			c-39.414,29.229-89.541,40.303-142.158,31.553c-40.498-6.758-95.322-26.895-135.254-49.912
			c-60.234-34.531-95.986-61.855-224.511-171.143c-56.768-48.135-98.828-80.654-132.725-102.1
			c-76.465-48.779-138.486-66.289-207.197-58.613c-75.977,8.535-141.191,36.201-207.627,88.271
			c-32.686,25.869-102.939,101.016-98.008,105.127c0.869,0.645,11.357,4.424,23.34,8.32
			c137.051,43.857,259.736,164.492,334.531,328.828c64.072,140.557,90.518,303.438,76.182,466.68
			c-2.686,29.121-7.109,65.752-11.035,91.953c-1.855,11.455-3.672,23.285-4.131,26.416c-0.752,5.023,0.352,6.752,10.059,17.07
			c58.223,61.313,79.561,152.041,55.146,234.262c-11.484,38.516-29.004,68.501-57.314,97.832
			c-30.459,31.44-61.582,50.459-102.861,62.749c-12.07,3.564-22.52,7.241-23.203,7.939c-0.537,0.728-4.512,10.127-8.75,20.962
			c-30.381,78.032-72.012,164.956-111.035,232.773c-5.215,8.945-9.18,16.641-9.033,16.992c0.361,0.186,9.492-1.27,20.371-3.379
			c29.287-5.669,84.434-8.179,110.664-4.941c35.791,4.458,60.508,11.533,89.219,25.498c28.633,13.916,38.252,24.795,29.795,33.604
			c-4.941,5.132-9.971,4.59-19.971-2.319c-20.381-13.97-49.336-25.122-81.162-31.172c-25.039-4.863-69.521-5.835-98.877-2.271
			c-16.592,2.104-56.24,9.858-65.566,12.993c-2.393,0.757-18.34,22.905-18.301,25.493c0,0.518,9.199,1.382,20.283,1.655
			c61.143,1.646,128.457,32.08,191.416,86.484c25.742,22.148,32.744,33.413,25.088,40.513c-6.309,5.864-10.469,3.862-29.922-14.287
			c-48.018-44.839-97.295-72.715-150.713-85.601c-13.564-3.315-22.051-4.209-45.244-4.424l-28.613-0.244l-6.211,8.647l-6.182,8.423
			l10.029,0.972c45.967,4.238,85.723,34.575,112.793,85.571c14.043,26.523,27.109,63.149,30.518,85.728
			c1.055,6.597,0.596,8.677-2.51,11.836c-1.836,2.266-5.273,4.077-7.344,4.16c-7.432-0.029-9.941-3.945-14.668-22.393
			c-6.221-25.313-12.637-42.49-23.721-64.229c-26.309-51.919-63.799-79.175-107.9-78.203l-15.107,0.298l-23.662,24.902
			c-37.441,39.385-66.602,60.454-101.504,73.149c-14.58,5.293-18.369,6.074-36.191,6.479c-15.938,0.327-22.5-0.239-32.954-3.296
			c-37.979-10.825-77.144-37.681-120.361-82.813c-15.396-15.962-16.099-16.45-24.956-17.476
			c-23.066-2.295-54.668,8.779-74.766,26.309c-26.636,23.286-50.942,71.035-60.288,118.657c-1.406,7.671-3.511,16.04-4.326,18.613
			c-3.237,9.263-17.231,9.561-19.878,0.269c-3.379-12.559,9.453-59.424,26.201-94.727c25.205-53.672,62.148-83.354,113.55-91.055
			l8.135-1.187l-5.537-7.51l-5.513-7.314l-14.204-0.928c-16.152-1.045-42.217,2.085-62.339,7.378
			c-50.293,13.018-102.754,45.459-148.184,91.401c-11.885,12.212-20.527,19.507-22.739,19.531c-1.943,0.054-5.244-1.592-7.378-3.809
			c-7.266-7.48-5.62-10.776,15.913-32.871c41.162-42.461,89.321-73.77,138.643-90.728c21.636-7.407,31.846-9.482,58.608-12.505
			l22.451-2.515l-7.837-11.265l-7.881-11.099l-17.021-3.647c-66.934-13.799-133.54-11.509-183.403,6.348
			c-20.42,7.183-38.73,16.558-51.855,26.367c-10.239,7.661-13.022,8.232-18.804,4.37c-2.646-1.675-3.887-4.243-3.999-8.398
			c-0.161-7.778,7.998-15.073,31.982-27.881c33.545-18.34,61.074-26.191,107.72-31.357c29.497-3.188,79.6-0.459,110.581,6.191
			c3.623,0.781,6.563,1.211,6.587,0.864c-0.024-0.356-6.099-10.244-13.447-22.046c-32.437-51.938-76.089-133.618-105.61-197.393
			l-15.293-32.871l-12.124-2.705c-29.736-6.646-57.529-18.716-83.223-36.519c-16.504-11.235-43.003-37.163-55.474-53.882
			c-18.911-25.557-34.688-60.722-41.978-94.321c-4.81-21.719-5.752-66.879-2.056-88.271c8.081-44.814,24.312-79.951,54.805-118.818
			l4.028-5.297l-3.623-15.498c-8.53-37.227-18.394-92.92-24.551-138.848c-4.512-34.512-7.671-116.68-5.884-155.137
			c5.83-124.473,33.081-238.243,81.919-341.631c38.14-80.449,77.788-137.061,137.163-195.508
			c57.803-56.992,133.916-101.943,202.119-119.121l11.479-2.803l9.126-19.609c17.559-38.252,43.306-73.965,83.247-115.498
			c92.544-96.318,208.042-158.389,332.29-179.307C3288.047,7408.388,3351.357,7405.693,3371.933,7407.304z"/>
	</g>
	<g>
		<path fill-rule="evenodd" clip-rule="evenodd" fill="#FFFFFF" d="M316.733,398.198c0.371,0.381,0.751,0.751,1.125,1.126
			c-0.283,1.145-0.41,2.361-0.889,3.417c-0.767,1.701-0.701,2.982,0.924,4.167c0.708,0.516,1.17,0.813,2.064,0.497
			c1.523-0.535,3.108-0.883,4.673-1.31c0.373,0.373,0.751,0.751,1.124,1.124c0.291,0.542,0.556,1.096,0.872,1.618
			c2.29,3.735,3.83,7.75,4.637,12.058c0.222,1.177-0.072,1.958-1.207,2.445c-1.054,0.456-2.044,1.062-3.098,1.496
			c-0.746,0.313-0.794,0.811-0.913,1.523c-0.352,2.117,0.514,3.289,2.48,3.873c0.54,0.165,1.015,0.537,1.545,0.751
			c1.144,0.461,1.447,1.242,1.215,2.434c-0.711,3.677-1.924,7.166-3.729,10.445c-0.593,1.074-1.201,2.145-1.803,3.22
			c-0.437,0.443-0.876,0.88-1.313,1.317c-1.344-0.399-2.724-0.713-4.021-1.242c-1.218-0.503-1.998-0.324-2.965,0.659
			c-0.956,0.967-1.162,1.739-0.659,2.966c0.534,1.291,0.843,2.669,1.248,4.008c-0.438,0.449-0.876,0.882-1.313,1.318
			c-0.503,0.271-1.027,0.497-1.503,0.8c-3.628,2.226-7.514,3.776-11.692,4.586c-2.034,0.395-2.585-0.048-2.585-2.127
			c0-5.095,0.049-10.195-0.029-15.29c-0.022-1.501,0.445-2.29,1.877-2.885c8.811-3.704,12.052-14.796,6.675-22.661
			c-0.743-1.083-1.694-2.021-2.548-3.025c-0.133,0.076-0.27,0.146-0.405,0.221c0.02,3.182,0.02,6.364,0.081,9.546
			c0.017,1.062-0.346,1.736-1.34,2.192c-2.49,1.146-4.927,2.423-7.444,3.521c-0.594,0.262-1.497,0.245-2.102-0.02
			c-2.512-1.102-4.951-2.371-7.439-3.524c-0.945-0.435-1.293-1.089-1.28-2.094c0.032-2.836,0.013-5.672,0.008-8.508
			c0-0.421-0.036-0.842-0.055-1.264c-0.116-0.059-0.234-0.116-0.348-0.175c-0.975,1.218-2.091,2.35-2.896,3.668
			c-4.997,8.155-1.545,18.628,7.32,22.276c1.07,0.438,1.645,1,1.634,2.236c-0.043,5.402-0.008,10.81-0.024,16.223
			c0,1.534-0.687,2.161-2.18,1.771c-2.439-0.632-4.897-1.269-7.228-2.197c-2.202-0.887-4.249-2.161-6.361-3.27
			c-0.378-0.373-0.753-0.745-1.132-1.129c0.287-1.135,0.414-2.355,0.883-3.414c0.765-1.696,0.713-2.977-0.918-4.16
			c-0.71-0.519-1.167-0.82-2.063-0.502c-1.518,0.535-3.112,0.886-4.668,1.313c-0.378-0.378-0.75-0.756-1.134-1.134
			c-0.125-0.266-0.232-0.557-0.394-0.811c-2.507-3.976-4.26-8.238-5.119-12.879c-0.216-1.188,0.093-1.948,1.223-2.432
			c1.097-0.478,2.178-0.996,3.198-1.608c0.362-0.211,0.719-0.762,0.732-1.162c0.099-2.874,0.07-2.874-2.553-4.176
			c-0.594-0.295-1.3-0.473-1.751-0.913c-0.446-0.438-0.961-1.183-0.885-1.709c0.805-5.34,2.917-10.175,6.013-14.591
			c0.524-0.753,1.213-0.945,2.091-0.624c1.118,0.408,2.285,0.702,3.378,1.167c0.84,0.354,1.289,0.033,1.964-0.473
			c1.521-1.142,1.664-2.385,0.832-3.968c-0.308-0.578-0.396-1.27-0.665-1.872c-0.513-1.137-0.159-1.941,0.833-2.603
			c3.679-2.445,7.611-4.328,11.928-5.327c3.517-0.816,3.652-0.868,5.067,2.441c0.799,1.875,1.804,2.653,3.841,2.366
			c0.805-0.113,1.275-0.275,1.594-1.021c0.459-1.051,1.037-2.055,1.51-3.106c0.445-1,1.152-1.402,2.229-1.132
			c1.501,0.375,3.084,0.562,4.489,1.164C310.552,395.167,313.624,396.726,316.733,398.198z M303.8,458.502
			c3.835-0.849,7.155-2.258,10.251-4.219c0.589-0.367,0.747-0.745,0.494-1.416c-0.443-1.156-0.912-2.323-1.129-3.537
			c-0.11-0.616,0.118-1.481,0.519-1.978c0.88-1.098,1.999-1.999,2.955-3.042c0.658-0.729,1.348-0.881,2.258-0.546
			c1.118,0.416,2.279,0.724,3.392,1.146c0.669,0.254,1.03,0.081,1.405-0.508c2.005-3.128,3.377-6.515,4.251-10.113
			c0.189-0.777-0.051-1.129-0.727-1.429c-1.093-0.48-2.142-1.066-3.225-1.574c-0.823-0.389-1.146-0.983-1.102-1.907
			c0.062-1.455,0.065-2.922-0.006-4.376c-0.054-0.98,0.273-1.602,1.158-2.009c1.087-0.498,2.132-1.087,3.227-1.567
			c0.637-0.286,0.831-0.643,0.663-1.34c-0.832-3.571-2.192-6.915-4.137-10.026c-0.395-0.621-0.789-0.843-1.516-0.559
			c-1.116,0.432-2.277,0.737-3.403,1.148c-0.861,0.313-1.516,0.119-2.14-0.546c-1.002-1.064-2.026-2.112-3.099-3.095
			c-0.724-0.66-0.901-1.351-0.572-2.255c0.393-1.083,0.682-2.204,1.107-3.274c0.311-0.775,0.087-1.208-0.592-1.621
			c-3.076-1.899-6.38-3.247-9.898-4.098c-0.762-0.186-1.125,0.036-1.427,0.724c-0.496,1.132-1,2.291-1.688,3.309
			c-0.331,0.489-1.074,0.918-1.666,0.973c-1.54,0.135-3.106,0.141-4.641-0.006c-0.627-0.062-1.405-0.507-1.767-1.021
			c-0.694-1.01-1.178-2.175-1.683-3.309c-0.286-0.651-0.65-0.81-1.342-0.651c-3.614,0.845-6.996,2.22-10.137,4.206
			c-0.651,0.413-0.775,0.821-0.51,1.521c0.432,1.118,0.74,2.279,1.145,3.403c0.318,0.868,0.092,1.516-0.573,2.131
			c-1,0.939-1.975,1.91-2.906,2.909c-0.646,0.71-1.318,0.958-2.248,0.613c-1.075-0.405-2.193-0.689-3.268-1.103
			c-0.729-0.286-1.172-0.216-1.631,0.508c-1.942,3.112-3.312,6.45-4.187,10.005c-0.172,0.729-0.045,1.145,0.681,1.453
			c1.097,0.473,2.142,1.062,3.22,1.575c0.818,0.381,1.188,0.95,1.145,1.888c-0.057,1.502-0.049,3.009,0.011,4.512
			c0.043,0.929-0.308,1.515-1.129,1.896c-1.042,0.485-2.039,1.069-3.101,1.51c-0.827,0.343-0.988,0.803-0.777,1.639
			c0.815,3.248,2.036,6.306,3.716,9.201c0.651,1.117,1.248,1.556,2.496,0.956c0.913-0.438,1.912-0.795,2.901-0.918
			c0.638-0.087,1.486,0.14,1.983,0.54c1.15,0.944,2.231,2.03,3.179,3.187c0.402,0.486,0.629,1.34,0.532,1.966
			c-0.184,1.124-0.586,2.232-1.053,3.279c-0.427,0.967-0.111,1.496,0.735,1.887c2.239,1.047,4.462,2.133,6.736,3.11
			c0.94,0.411,1.978,0.595,3.119,0.914c-0.005-4.593-0.04-8.936,0.014-13.269c0.011-0.967-0.262-1.447-1.159-1.918
			c-6.193-3.23-9.683-8.385-10.023-15.353c-0.346-7.022,2.62-12.533,8.552-16.358c0.507-0.329,1.458-0.529,1.907-0.27
			c0.454,0.254,0.729,1.159,0.74,1.789c0.071,3.587,0.071,7.173,0.022,10.766c-0.011,0.843,0.259,1.264,1.019,1.595
			c1.661,0.726,3.254,1.614,4.935,2.301c0.562,0.231,1.377,0.242,1.939,0.017c1.718-0.703,3.357-1.6,5.057-2.351
			c0.713-0.313,0.956-0.719,0.945-1.508c-0.043-3.546-0.049-7.093,0.021-10.631c0.015-0.678,0.281-1.718,0.73-1.91
			c0.562-0.235,1.545,0.024,2.14,0.402c11.371,7.307,11.009,24.115-0.73,30.9c-1.674,0.967-2.203,1.918-2.142,3.761
			C303.902,450.453,303.8,454.391,303.8,458.502z"/>
	</g>
</g>
</svg>
