<?xml version="1.0" encoding="utf-8"?>
<!-- Generator: Adobe Illustrator 16.0.0, SVG Export Plug-In . SVG Version: 6.00 Build 0)  -->
<!DOCTYPE svg PUBLIC "-//W3C//DTD SVG 1.1//EN" "http://www.w3.org/Graphics/SVG/1.1/DTD/svg11.dtd">
<svg version="1.1" id="Layer_1" xmlns="http://www.w3.org/2000/svg" xmlns:xlink="http://www.w3.org/1999/xlink" x="0px" y="0px"
	 width="595.28px" height="841.89px" viewBox="0 0 595.28 841.89" enable-background="new 0 0 595.28 841.89" xml:space="preserve">
<g>
	<path fill-rule="evenodd" clip-rule="evenodd" fill="#4B2461" d="M480.365,420.942c0,100.92-81.808,182.728-182.725,182.728
		c-100.916,0-182.725-81.808-182.725-182.728c0-100.915,81.809-182.724,182.725-182.724
		C398.558,238.219,480.365,320.028,480.365,420.942z"/>
	<g transform="translate(0.000000,1280.000000) scale(0.100000,-0.100000)">
		<path fill="#FFFFFF" d="M3399.736,7324.13c108.066,8.848,204.443,47.588,301.025,120.908
			c16.797,12.656,44.59,37.578,83.145,74.639c82.099,78.682,112.314,106.738,143.476,133.33
			c129.609,109.854,225.674,157.148,285.127,140.391c14.375-4.121,21.172-7.93,43.018-24.697
			c21.777-16.758,28.535-18.906,41.436-13.643c26.885,11.328,14.395,49.951-25.732,79.668
			c-42.178,31.279-95.83,43.135-152.148,33.77c-43.34-7.227-102.021-28.789-144.746-53.428
			c-64.473-36.943-102.754-66.201-240.293-183.164c-60.771-51.523-105.781-86.318-142.061-109.277
			c-81.846-52.207-148.213-70.947-221.768-62.734c-81.318,9.131-151.113,38.73-222.217,94.473
			c-34.99,27.695-110.176,108.115-104.883,112.51c0.918,0.703,12.129,4.746,24.971,8.916
			c146.689,46.943,277.988,176.045,358.047,351.934c68.574,150.449,96.865,324.766,81.514,499.502
			c-2.852,31.152-7.598,70.346-11.787,98.389c-1.992,12.285-3.936,24.916-4.424,28.275c-0.811,5.371,0.371,7.223,10.752,18.291
			c62.334,65.596,85.176,162.734,59.043,250.732c-12.305,41.226-31.055,73.315-61.357,104.712
			c-32.607,33.647-65.908,54.004-110.088,67.153c-12.92,3.818-24.102,7.749-24.824,8.501c-0.586,0.781-4.834,10.84-9.375,22.437
			c-32.52,83.516-77.07,176.548-118.848,249.136c-5.576,9.57-9.824,17.808-9.648,18.184c0.371,0.176,10.146-1.357,21.797-3.613
			c31.328-6.069,90.371-8.755,118.438-5.288c38.301,4.741,64.756,12.344,95.488,27.29c30.645,14.858,40.938,26.533,31.895,35.962
			c-5.303,5.498-10.674,4.912-21.377-2.49c-21.826-14.941-52.813-26.88-86.865-33.359c-26.807-5.2-74.414-6.24-105.84-2.422
			c-17.754,2.246-60.186,10.552-70.156,13.872c-2.578,0.84-19.629,24.546-19.609,27.29c0,0.581,9.863,1.499,21.719,1.792
			c65.449,1.763,137.49,34.341,204.883,92.568c27.539,23.701,35.039,35.762,26.855,43.364c-6.768,6.274-11.221,4.121-32.031-15.293
			c-51.406-48.008-104.131-77.822-161.318-91.616c-14.521-3.584-23.594-4.512-48.428-4.736l-30.605-0.264l-6.66,9.219l-6.621,9.053
			l10.723,1.04c49.209,4.541,91.768,36.992,120.742,91.567c15.029,28.408,29.014,67.593,32.656,91.777
			c1.133,7.056,0.645,9.277-2.686,12.661c-1.963,2.427-5.635,4.36-7.871,4.438c-7.939-0.034-10.635-4.209-15.684-23.95
			c-6.66-27.095-13.535-45.479-25.391-68.765c-28.154-55.547-68.271-84.717-115.488-83.691l-16.162,0.317l-25.332,26.655
			c-40.059,42.163-71.289,64.697-108.643,78.301c-15.586,5.669-19.663,6.509-38.716,6.929c-17.07,0.352-24.097-0.264-35.293-3.535
			c-40.64-11.572-82.568-40.322-128.809-88.618c-16.46-17.085-17.217-17.622-26.714-18.721
			c-24.688-2.441-58.516,9.409-80.005,28.174c-28.535,24.902-54.536,76.016-64.556,126.997c-1.484,8.198-3.726,17.163-4.595,19.917
			c-3.486,9.917-18.477,10.234-21.289,0.283c-3.613-13.452,10.112-63.594,28.052-101.387
			c26.963-57.446,66.504-89.219,121.523-97.441l8.696-1.304l-5.908-8.003l-5.913-7.842l-15.205-0.977
			c-17.275-1.157-45.181,2.197-66.738,7.861c-53.809,13.95-109.941,48.667-158.579,97.856
			c-12.705,13.066-21.958,20.864-24.341,20.903c-2.08,0.054-5.625-1.719-7.896-4.077c-7.788-8.022-6.011-11.548,17.046-35.195
			c44.053-45.435,95.586-78.94,148.374-97.095c23.169-7.92,34.082-10.142,62.729-13.384l24.028-2.686l-8.384-12.056l-8.442-11.885
			l-18.213-3.901c-71.65-14.771-142.939-12.314-196.294,6.763c-21.865,7.69-41.455,17.754-55.522,28.218
			c-10.938,8.242-13.916,8.843-20.117,4.683c-2.803-1.792-4.15-4.512-4.263-8.965c-0.176-8.32,8.569-16.128,34.214-29.829
			c35.918-19.663,65.376-28.042,115.288-33.594c31.582-3.413,85.21-0.464,118.35,6.65c3.896,0.84,7.046,1.299,7.085,0.923
			c-0.039-0.376-6.563-10.986-14.419-23.589c-34.712-55.596-81.426-143.013-113.037-211.27l-16.333-35.21l-12.998-2.896
			c-31.826-7.104-61.577-20.005-89.058-39.053c-17.676-12.026-46.035-39.78-59.395-57.676
			c-20.22-27.349-37.129-64.985-44.917-100.947c-5.137-23.246-6.162-71.582-2.188-94.473c8.628-47.963,25.991-85.576,58.643-127.207
			l4.326-5.664l-3.877-16.592c-9.165-39.838-19.707-99.447-26.294-148.578c-4.829-36.953-8.213-124.893-6.299-166.055
			c6.24-133.213,35.396-254.981,87.695-365.655c40.791-86.084,83.223-146.68,146.768-209.238
			c61.88-60.996,143.35-109.102,216.343-127.49l12.29-3.008l9.785-20.986c18.774-40.928,46.328-79.15,89.097-123.613
			c99.028-103.096,222.642-169.531,355.63-191.904C3309.941,7325.292,3377.705,7322.392,3399.736,7324.13z"/>
	</g>
	<g>
		<path fill-rule="evenodd" clip-rule="evenodd" fill="#4B2461" d="M319.587,394.398c0.428,0.439,0.861,0.867,1.295,1.295
			c-0.327,1.312-0.472,2.706-1.023,3.915c-0.874,1.951-0.804,3.417,1.062,4.778c0.812,0.592,1.338,0.931,2.366,0.57
			c1.744-0.613,3.563-1.012,5.354-1.504c0.428,0.431,0.861,0.867,1.289,1.292c0.336,0.622,0.637,1.258,1,1.853
			c2.626,4.281,4.39,8.884,5.317,13.818c0.254,1.353-0.087,2.243-1.385,2.805c-1.209,0.523-2.342,1.219-3.557,1.715
			c-0.85,0.354-0.907,0.932-1.04,1.747c-0.404,2.428,0.59,3.77,2.839,4.44c0.619,0.185,1.165,0.612,1.771,0.861
			c1.316,0.526,1.66,1.422,1.394,2.786c-0.812,4.216-2.205,8.217-4.272,11.97c-0.68,1.236-1.379,2.469-2.067,3.693
			c-0.499,0.51-1.006,1.013-1.503,1.516c-1.544-0.457-3.125-0.82-4.608-1.428c-1.398-0.573-2.289-0.371-3.399,0.757
			c-1.099,1.11-1.335,1.995-0.757,3.399c0.612,1.475,0.965,3.059,1.434,4.598c-0.503,0.508-1.006,1.006-1.509,1.503
			c-0.578,0.313-1.174,0.578-1.723,0.92c-4.157,2.555-8.61,4.329-13.403,5.261c-2.327,0.444-2.96-0.059-2.96-2.446
			c0-5.84,0.058-11.685-0.034-17.519c-0.024-1.723,0.511-2.625,2.149-3.313c10.099-4.238,13.819-16.957,7.65-25.976
			c-0.848-1.237-1.937-2.313-2.92-3.463c-0.15,0.086-0.307,0.168-0.463,0.254c0.023,3.648,0.023,7.294,0.093,10.944
			c0.017,1.214-0.396,1.989-1.532,2.509c-2.855,1.313-5.648,2.781-8.532,4.036c-0.686,0.3-1.72,0.283-2.41-0.018
			c-2.879-1.266-5.679-2.718-8.53-4.047c-1.079-0.498-1.481-1.243-1.47-2.399c0.039-3.249,0.021-6.498,0.015-9.747
			c0-0.486-0.042-0.965-0.063-1.451c-0.132-0.066-0.27-0.133-0.4-0.202c-1.117,1.399-2.394,2.694-3.32,4.206
			c-5.726,9.345-1.766,21.354,8.392,25.534c1.226,0.498,1.887,1.145,1.872,2.561c-0.046,6.193-0.009,12.392-0.026,18.596
			c-0.003,1.764-0.787,2.479-2.499,2.035c-2.794-0.729-5.615-1.457-8.284-2.521c-2.525-1.012-4.873-2.48-7.293-3.752
			c-0.433-0.422-0.863-0.856-1.295-1.29c0.327-1.306,0.471-2.7,1.013-3.914c0.873-1.942,0.814-3.411-1.054-4.77
			c-0.814-0.59-1.34-0.938-2.366-0.573c-1.742,0.613-3.564,1.018-5.351,1.503c-0.431-0.433-0.862-0.866-1.295-1.301
			c-0.147-0.3-0.269-0.636-0.454-0.93c-2.875-4.552-4.886-9.442-5.868-14.756c-0.25-1.371,0.107-2.237,1.402-2.793
			c1.255-0.544,2.498-1.138,3.666-1.845c0.414-0.242,0.824-0.872,0.838-1.335c0.112-3.29,0.08-3.29-2.924-4.78
			c-0.681-0.335-1.49-0.543-2.009-1.047c-0.51-0.5-1.104-1.355-1.013-1.96c0.922-6.123,3.343-11.662,6.89-16.727
			c0.603-0.867,1.39-1.082,2.396-0.714c1.285,0.466,2.623,0.807,3.876,1.336c0.961,0.407,1.477,0.038,2.248-0.541
			c1.746-1.31,1.908-2.735,0.956-4.548c-0.351-0.664-0.454-1.454-0.762-2.147c-0.585-1.307-0.184-2.224,0.954-2.983
			c4.215-2.799,8.723-4.961,13.676-6.106c4.025-0.937,4.185-0.994,5.802,2.798c0.917,2.151,2.071,3.042,4.407,2.712
			c0.919-0.13,1.456-0.315,1.827-1.167c0.527-1.209,1.188-2.356,1.728-3.562c0.512-1.145,1.321-1.607,2.557-1.295
			c1.72,0.428,3.535,0.642,5.147,1.33C312.504,390.929,316.025,392.715,319.587,394.398z M304.768,463.525
			c4.395-0.972,8.198-2.59,11.746-4.834c0.673-0.428,0.858-0.856,0.569-1.625c-0.509-1.323-1.053-2.659-1.295-4.053
			c-0.13-0.711,0.133-1.693,0.59-2.267c1.011-1.261,2.295-2.289,3.388-3.486c0.758-0.839,1.549-1.006,2.591-0.63
			c1.283,0.48,2.613,0.832,3.891,1.318c0.764,0.289,1.177,0.092,1.608-0.584c2.294-3.586,3.867-7.465,4.873-11.593
			c0.22-0.891-0.058-1.296-0.832-1.636c-1.255-0.556-2.454-1.227-3.698-1.811c-0.945-0.444-1.315-1.122-1.263-2.18
			c0.072-1.671,0.075-3.354-0.007-5.018c-0.063-1.125,0.315-1.839,1.325-2.304c1.248-0.569,2.446-1.246,3.7-1.795
			c0.731-0.33,0.954-0.737,0.764-1.538c-0.957-4.091-2.516-7.921-4.744-11.489c-0.451-0.716-0.905-0.965-1.738-0.642
			c-1.28,0.492-2.613,0.844-3.903,1.313c-0.984,0.358-1.733,0.139-2.45-0.625c-1.146-1.22-2.321-2.423-3.55-3.55
			c-0.827-0.752-1.036-1.547-0.66-2.585c0.451-1.237,0.78-2.526,1.27-3.752c0.355-0.887,0.098-1.381-0.677-1.856
			c-3.527-2.176-7.311-3.723-11.347-4.698c-0.876-0.211-1.286,0.041-1.637,0.83c-0.566,1.299-1.145,2.625-1.934,3.793
			c-0.379,0.561-1.23,1.052-1.908,1.11c-1.765,0.156-3.56,0.167-5.319-0.003c-0.721-0.069-1.611-0.578-2.023-1.17
			c-0.798-1.16-1.353-2.492-1.931-3.793c-0.328-0.743-0.748-0.928-1.538-0.743c-4.145,0.968-8.02,2.541-11.62,4.819
			c-0.748,0.474-0.889,0.942-0.583,1.746c0.49,1.277,0.844,2.607,1.311,3.897c0.364,0.997,0.101,1.74-0.655,2.445
			c-1.148,1.076-2.268,2.186-3.335,3.336c-0.738,0.809-1.51,1.099-2.574,0.699c-1.232-0.465-2.518-0.789-3.751-1.263
			c-0.835-0.327-1.34-0.249-1.866,0.584c-2.228,3.565-3.797,7.392-4.796,11.468c-0.204,0.833-0.055,1.313,0.776,1.666
			c1.257,0.541,2.456,1.214,3.693,1.804c0.934,0.439,1.357,1.09,1.314,2.161c-0.07,1.723-0.062,3.452,0.01,5.175
			c0.049,1.063-0.355,1.734-1.295,2.168c-1.194,0.562-2.339,1.232-3.556,1.735c-0.947,0.393-1.133,0.918-0.89,1.879
			c0.936,3.718,2.334,7.227,4.262,10.552c0.743,1.277,1.428,1.774,2.859,1.086c1.046-0.497,2.19-0.907,3.326-1.052
			c0.73-0.093,1.702,0.162,2.27,0.618c1.321,1.088,2.559,2.33,3.646,3.654c0.458,0.562,0.724,1.538,0.61,2.255
			c-0.208,1.29-0.674,2.557-1.207,3.759c-0.49,1.11-0.126,1.718,0.84,2.162c2.567,1.203,5.12,2.445,7.72,3.567
			c1.083,0.469,2.273,0.683,3.577,1.047c-0.004-5.262-0.043-10.24,0.018-15.206c0.014-1.11-0.302-1.66-1.328-2.197
			c-7.099-3.706-11.1-9.615-11.489-17.6c-0.395-8.047,3.003-14.367,9.801-18.75c0.586-0.382,1.674-0.607,2.188-0.313
			c0.516,0.292,0.832,1.33,0.845,2.047c0.081,4.114,0.081,8.228,0.026,12.344c-0.013,0.964,0.296,1.444,1.167,1.826
			c1.907,0.832,3.732,1.855,5.654,2.643c0.649,0.259,1.581,0.276,2.228,0.017c1.97-0.804,3.848-1.833,5.792-2.694
			c0.822-0.364,1.1-0.827,1.088-1.728c-0.052-4.064-0.059-8.129,0.023-12.191c0.015-0.772,0.323-1.969,0.833-2.186
			c0.646-0.274,1.774,0.026,2.457,0.463c13.031,8.372,12.616,27.639-0.839,35.42c-1.919,1.11-2.526,2.197-2.454,4.308
			C304.883,454.303,304.768,458.813,304.768,463.525z"/>
	</g>
</g>
</svg>
